<svg width="1992" height="206" viewBox="0 0 1992 206" fill="none" xmlns="http://www.w3.org/2000/svg">
<path d="M0.880328 100H0.0134147V100.867H0.880328V100ZM0.880328 1.5046V0.637689H0.0134147V1.5046H0.880328ZM24.6866 1.5046H25.5535V0.637689H24.6866V1.5046ZM24.6866 80.6664H23.8197V81.5333H24.6866V80.6664ZM65.6622 80.6664H66.5291V79.7995H65.6622V80.6664ZM65.6622 100V100.867H66.5291V100H65.6622ZM1.74724 100V1.5046H0.0134147V100H1.74724ZM0.880328 2.37152H24.6866V0.637689H0.880328V2.37152ZM23.8197 1.5046V80.6664H25.5535V1.5046H23.8197ZM24.6866 81.5333H65.6622V79.7995H24.6866V81.5333ZM64.7953 80.6664V100H66.5291V80.6664H64.7953ZM65.6622 99.1331H0.880328V100.867H65.6622V99.1331ZM62.7285 20.8382H61.8616V21.7051H62.7285V20.8382ZM62.7285 1.5046V0.637689H61.8616V1.5046H62.7285ZM145.978 1.5046H146.845V0.637689H145.978V1.5046ZM145.978 20.8382V21.7051H146.845V20.8382H145.978ZM116.112 20.8382V19.9713H115.245V20.8382H116.112ZM116.112 100V100.867H116.979V100H116.112ZM92.6426 100H91.7757V100.867H92.6426V100ZM92.6426 20.8382H93.5096V19.9713H92.6426V20.8382ZM63.5954 20.8382V1.5046H61.8616V20.8382H63.5954ZM62.7285 2.37152H145.978V0.637689H62.7285V2.37152ZM145.111 1.5046V20.8382H146.845V1.5046H145.111ZM145.978 19.9713H116.112V21.7051H145.978V19.9713ZM115.245 20.8382V100H116.979V20.8382H115.245ZM116.112 99.1331H92.6426V100.867H116.112V99.1331ZM93.5096 100V20.8382H91.7757V100H93.5096ZM92.6426 19.9713H62.7285V21.7051H92.6426V19.9713ZM239.821 78.3099L239.062 77.8902L239.062 77.8902L239.821 78.3099ZM222.892 95.4792L222.474 94.7195L222.473 94.7203L222.892 95.4792ZM175.135 95.4311L175.557 94.6736L175.557 94.6736L175.135 95.4311ZM158.254 78.2618L157.494 78.6789L157.496 78.6828L158.254 78.2618ZM158.254 23.1948L157.496 22.7751L157.494 22.7776L158.254 23.1948ZM175.135 6.02539L175.554 6.78434L175.554 6.78434L175.135 6.02539ZM222.892 6.02539L222.473 6.78434L222.474 6.78514L222.892 6.02539ZM239.821 23.1948L239.062 23.6144L239.062 23.6144L239.821 23.1948ZM218.996 34.4967L218.193 34.8227L218.195 34.8277L218.996 34.4967ZM211.205 24.4452L210.719 25.1633L210.723 25.1654L211.205 24.4452ZM186.87 24.4452L187.352 25.1654L187.352 25.1654L186.87 24.4452ZM179.031 34.4967L178.229 34.1658L178.227 34.1707L179.031 34.4967ZM179.031 67.0079L178.227 67.3339L178.229 67.3388L179.031 67.0079ZM186.87 77.0594L187.352 76.3392L187.352 76.3392L186.87 77.0594ZM211.205 77.0594L210.723 76.3391L210.719 76.3413L211.205 77.0594ZM218.996 67.0079L218.195 66.6769L218.193 66.6819L218.996 67.0079ZM245.206 50.7523C245.206 61.4798 243.143 70.5131 239.062 77.8902L240.579 78.7295C244.834 71.0373 246.94 61.6989 246.94 50.7523H245.206ZM239.062 77.8902C234.968 85.2906 229.44 90.8916 222.474 94.7195L223.309 96.239C230.579 92.2437 236.337 86.3984 240.579 78.7295L239.062 77.8902ZM222.473 94.7203C215.527 98.5548 207.721 100.48 199.037 100.48V102.214C207.988 102.214 216.085 100.227 223.311 96.2382L222.473 94.7203ZM199.037 100.48C190.322 100.48 182.502 98.5391 175.557 94.6736L174.713 96.1886C181.94 100.21 190.054 102.214 199.037 102.214V100.48ZM175.557 94.6736C168.62 90.8132 163.106 85.2106 159.012 77.8407L157.496 78.6828C161.738 86.318 167.478 92.1617 174.713 96.1886L175.557 94.6736ZM159.014 77.8446C154.964 70.4666 152.917 61.4483 152.917 50.7523H151.183C151.183 61.6663 153.272 70.9876 157.494 78.6789L159.014 77.8446ZM152.917 50.7523C152.917 40.0238 154.964 30.9896 159.014 23.6119L157.494 22.7776C153.272 30.4692 151.183 39.8067 151.183 50.7523H152.917ZM159.013 23.6144C163.107 16.213 168.62 10.612 175.554 6.78434L174.716 5.26644C167.478 9.26202 161.737 15.1072 157.496 22.7751L159.013 23.6144ZM175.554 6.78434C182.5 2.95003 190.321 1.0249 199.037 1.0249V-0.708928C190.056 -0.708928 181.942 1.27754 174.716 5.26644L175.554 6.78434ZM199.037 1.0249C207.721 1.0249 215.527 2.94978 222.473 6.78434L223.311 5.26644C216.085 1.27779 207.988 -0.708928 199.037 -0.708928V1.0249ZM222.474 6.78514C229.44 10.613 234.968 16.214 239.062 23.6144L240.579 22.7751C236.337 15.1062 230.579 9.26094 223.309 5.26564L222.474 6.78514ZM239.062 23.6144C243.143 30.9915 245.206 40.0248 245.206 50.7523H246.94C246.94 39.8057 244.834 30.4673 240.579 22.7751L239.062 23.6144ZM222.604 50.7523C222.604 44.2627 221.68 38.7244 219.797 34.1658L218.195 34.8277C219.967 39.1182 220.871 44.417 220.871 50.7523H222.604ZM219.799 34.1707C217.95 29.6131 215.253 26.1131 211.687 23.7249L210.723 25.1654C213.954 27.3301 216.451 30.5311 218.193 34.8227L219.799 34.1707ZM211.691 23.727C208.158 21.3382 203.926 20.1636 199.037 20.1636V21.8975C203.639 21.8975 207.519 22.9993 210.719 25.1633L211.691 23.727ZM199.037 20.1636C194.179 20.1636 189.949 21.3389 186.387 23.7249L187.352 25.1654C190.587 22.9986 194.469 21.8975 199.037 21.8975V20.1636ZM186.387 23.7249C182.823 26.1121 180.111 29.6103 178.229 34.1658L179.832 34.8277C181.605 30.5339 184.119 27.3311 187.352 25.1654L186.387 23.7249ZM178.227 34.1707C176.378 38.7278 175.47 44.2642 175.47 50.7523H177.204C177.204 44.4155 178.092 39.1149 179.834 34.8227L178.227 34.1707ZM175.47 50.7523C175.47 57.2404 176.378 62.7768 178.227 67.3339L179.834 66.6819C178.092 62.3897 177.204 57.0891 177.204 50.7523H175.47ZM178.229 67.3388C180.111 71.8943 182.823 75.3925 186.387 77.7797L187.352 76.3392C184.119 74.1735 181.605 70.9707 179.832 66.6769L178.229 67.3388ZM186.387 77.7797C189.949 80.1657 194.179 81.341 199.037 81.341V79.6071C194.469 79.6071 190.587 78.506 187.352 76.3392L186.387 77.7797ZM199.037 81.341C203.926 81.341 208.158 80.1664 211.691 77.7776L210.719 76.3413C207.519 78.5053 203.639 79.6071 199.037 79.6071V81.341ZM211.687 77.7797C215.253 75.3915 217.95 71.8915 219.799 67.3339L218.193 66.6819C216.451 70.9735 213.954 74.1745 210.723 76.3392L211.687 77.7797ZM219.797 67.3388C221.68 62.7802 222.604 57.2419 222.604 50.7523H220.871C220.871 57.0876 219.967 62.3864 218.195 66.6769L219.797 67.3388ZM336.344 41.7107H337.211V40.8438H336.344V41.7107ZM336.344 59.7939V60.6608H337.211V59.7939H336.344ZM290.752 59.7939H289.885V60.6608H290.752V59.7939ZM290.752 41.7107V40.8438H289.885V41.7107H290.752ZM335.477 41.7107V59.7939H337.211V41.7107H335.477ZM336.344 58.927H290.752V60.6608H336.344V58.927ZM291.619 59.7939V41.7107H289.885V59.7939H291.619ZM290.752 42.5776H336.344V40.8438H290.752V42.5776ZM382.045 1.5046V0.637689H381.178V1.5046H382.045ZM411.526 1.5046L412.328 1.17567L412.108 0.637689H411.526V1.5046ZM436.535 62.4871L435.733 62.816L435.953 63.354H436.535V62.4871ZM437.689 62.4871V63.354H438.271L438.491 62.816L437.689 62.4871ZM462.698 1.5046V0.637689H462.116L461.896 1.17567L462.698 1.5046ZM492.179 1.5046H493.046V0.637689H492.179V1.5046ZM492.179 100V100.867H493.046V100H492.179ZM468.998 100H468.131V100.867H468.998V100ZM468.998 39.4984H469.865V38.6315H468.998V39.4984ZM468.18 39.4984V38.6315H467.591L467.374 39.1798L468.18 39.4984ZM444.518 99.3748V100.242H445.108L445.325 99.6934L444.518 99.3748ZM429.706 99.3748L428.899 99.6919L429.115 100.242H429.706V99.3748ZM406.044 39.1618L406.85 38.8447L406.634 38.2949H406.044V39.1618ZM405.226 39.1618V38.2949H404.359V39.1618H405.226ZM405.226 100V100.867H406.093V100H405.226ZM382.045 100H381.178V100.867H382.045V100ZM382.045 2.37152H411.526V0.637689H382.045V2.37152ZM410.724 1.83353L435.733 62.816L437.337 62.1582L412.328 1.17567L410.724 1.83353ZM436.535 63.354H437.689V61.6202H436.535V63.354ZM438.491 62.816L463.5 1.83353L461.896 1.17567L436.887 62.1582L438.491 62.816ZM462.698 2.37152H492.179V0.637689H462.698V2.37152ZM491.312 1.5046V100H493.046V1.5046H491.312ZM492.179 99.1331H468.998V100.867H492.179V99.1331ZM469.865 100V39.4984H468.131V100H469.865ZM468.998 38.6315H468.18V40.3653H468.998V38.6315ZM467.374 39.1798L443.712 99.0562L445.325 99.6934L468.987 39.817L467.374 39.1798ZM444.518 98.5079H429.706V100.242H444.518V98.5079ZM430.512 99.0577L406.85 38.8447L405.237 39.4788L428.899 99.6919L430.512 99.0577ZM406.044 38.2949H405.226V40.0287H406.044V38.2949ZM404.359 39.1618V100H406.093V39.1618H404.359ZM405.226 99.1331H382.045V100.867H405.226V99.1331ZM382.912 100V1.5046H381.178V100H382.912ZM507.028 100H506.161V100.867H507.028V100ZM507.028 1.5046V0.637689H506.161V1.5046H507.028ZM575.705 1.5046H576.572V0.637689H575.705V1.5046ZM575.705 20.8382V21.7051H576.572V20.8382H575.705ZM530.834 20.8382V19.9713H529.967V20.8382H530.834ZM530.834 41.0374H529.967V41.9043H530.834V41.0374ZM572.194 41.0374H573.061V40.1705H572.194V41.0374ZM572.194 60.4191V61.286H573.061V60.4191H572.194ZM530.834 60.4191V59.5522H529.967V60.4191H530.834ZM530.834 80.6664H529.967V81.5333H530.834V80.6664ZM575.705 80.6664H576.572V79.7995H575.705V80.6664ZM575.705 100V100.867H576.572V100H575.705ZM507.895 100V1.5046H506.161V100H507.895ZM507.028 2.37152H575.705V0.637689H507.028V2.37152ZM574.838 1.5046V20.8382H576.572V1.5046H574.838ZM575.705 19.9713H530.834V21.7051H575.705V19.9713ZM529.967 20.8382V41.0374H531.701V20.8382H529.967ZM530.834 41.9043H572.194V40.1705H530.834V41.9043ZM571.328 41.0374V60.4191H573.061V41.0374H571.328ZM572.194 59.5522H530.834V61.286H572.194V59.5522ZM529.967 60.4191V80.6664H531.701V60.4191H529.967ZM530.834 81.5333H575.705V79.7995H530.834V81.5333ZM574.838 80.6664V100H576.572V80.6664H574.838ZM575.705 99.1331H507.028V100.867H575.705V99.1331ZM590.614 100H589.747V100.867H590.614V100ZM590.614 1.5046V0.637689H589.747V1.5046H590.614ZM652.895 7.4201L652.481 8.18156L652.485 8.18372L652.895 7.4201ZM669.728 24.349L668.964 24.7578L668.964 24.7592L669.728 24.349ZM669.728 77.1556L668.964 76.7468L668.962 76.7494L669.728 77.1556ZM652.943 94.1326L653.354 94.8962L653.356 94.8948L652.943 94.1326ZM614.421 79.7046H613.554V80.5715H614.421V79.7046ZM640.102 76.9151L640.482 77.6944L640.485 77.6931L640.102 76.9151ZM648.807 67.7293L648.022 67.363L648.02 67.3656L648.807 67.7293ZM648.807 33.7753L648.023 34.1439L648.024 34.1462L648.807 33.7753ZM640.006 24.6376L639.624 25.4156L639.632 25.4193L640.006 24.6376ZM614.421 21.8V20.9331H613.554V21.8H614.421ZM627.021 99.1331H590.614V100.867H627.021V99.1331ZM591.481 100V1.5046H589.747V100H591.481ZM590.614 2.37152H626.973V0.637689H590.614V2.37152ZM626.973 2.37152C636.895 2.37152 645.387 4.32056 652.481 8.18155L653.31 6.65865C645.912 2.63231 637.122 0.637689 626.973 0.637689V2.37152ZM652.485 8.18372C659.611 12.0135 665.099 17.5321 668.964 24.7578L670.492 23.9402C666.469 16.4172 660.736 10.6499 653.306 6.65648L652.485 8.18372ZM668.964 24.7592C672.826 31.9498 674.777 40.5874 674.777 50.7042H676.51C676.51 40.3653 674.517 31.4327 670.492 23.9388L668.964 24.7592ZM674.777 50.7042C674.777 60.8535 672.826 69.5237 668.964 76.7468L670.492 77.5644C674.517 70.0389 676.51 61.0748 676.51 50.7042H674.777ZM668.962 76.7494C665.13 83.9742 659.657 89.5088 652.53 93.3704L653.356 94.8948C660.786 90.8691 666.503 85.0856 670.494 77.5618L668.962 76.7494ZM652.533 93.369C645.405 97.1999 636.911 99.1331 627.021 99.1331V100.867C637.138 100.867 645.926 98.8885 653.354 94.8962L652.533 93.369ZM614.421 80.5715H626.107V78.8376H614.421V80.5715ZM626.107 80.5715C631.716 80.5715 636.519 79.6263 640.482 77.6944L639.723 76.1359C636.055 77.9232 631.528 78.8376 626.107 78.8376V80.5715ZM640.485 77.6931C644.527 75.7059 647.563 72.4887 649.594 68.093L648.02 67.3656C646.14 71.4343 643.373 74.341 639.72 76.1372L640.485 77.6931ZM649.593 68.0956C651.655 63.6734 652.656 57.8583 652.656 50.7042H650.922C650.922 57.7217 649.936 63.2566 648.022 67.363L649.593 68.0956ZM652.656 50.7042C652.656 43.5512 651.655 37.7653 649.591 33.4045L648.024 34.1462C649.936 38.1856 650.922 43.6857 650.922 50.7042H652.656ZM649.592 33.4068C647.527 29.0105 644.457 25.8095 640.381 23.8558L639.632 25.4193C643.315 27.1848 646.112 30.0757 648.023 34.1439L649.592 33.4068ZM640.389 23.8596C636.391 21.8939 631.506 20.9331 625.771 20.9331V22.667C631.321 22.667 635.927 23.5978 639.624 25.4155L640.389 23.8596ZM625.771 20.9331H614.421V22.667H625.771V20.9331ZM613.554 21.8V79.7046H615.287V21.8H613.554ZM713.349 1.5046H714.216V0.637689H713.349V1.5046ZM713.349 100V100.867H714.216V100H713.349ZM689.543 100H688.676V100.867H689.543V100ZM689.543 1.5046V0.637689H688.676V1.5046H689.543ZM712.482 1.5046V100H714.216V1.5046H712.482ZM713.349 99.1331H689.543V100.867H713.349V99.1331ZM690.409 100V1.5046H688.676V100H690.409ZM689.543 2.37152H713.349V0.637689H689.543V2.37152ZM817.7 37.1899V38.0569H818.655L818.562 37.1055L817.7 37.1899ZM793.653 37.1899L792.793 37.3016L792.891 38.0569H793.653V37.1899ZM791.681 30.505L790.906 30.8926L790.906 30.8926L791.681 30.505ZM787.737 25.4071L788.304 24.7507L788.304 24.7507L787.737 25.4071ZM781.918 22.1848L781.633 23.0036L781.64 23.006L781.647 23.0084L781.918 22.1848ZM762.2 24.5414L761.714 23.8231L761.711 23.8252L762.2 24.5414ZM754.264 34.6891L753.465 34.3532L753.463 34.3581L754.264 34.6891ZM754.312 67.2003L753.513 67.5362L753.516 67.5432L754.312 67.2003ZM762.248 77.1556L761.77 77.8791L761.778 77.8842L762.248 77.1556ZM781.581 79.4641L781.326 78.6358L781.322 78.6369L781.581 79.4641ZM787.305 76.5304L787.84 77.2125L787.841 77.2112L787.305 76.5304ZM791.392 71.7691L790.641 71.3363L790.639 71.3404L791.392 71.7691ZM793.653 65.3727L793.658 64.5058L792.926 64.5014L792.799 65.2227L793.653 65.3727ZM817.7 65.517L818.563 65.5995L818.653 64.6558L817.705 64.6501L817.7 65.517ZM813.9 78.406L813.125 78.0183L813.122 78.0231L813.9 78.406ZM805.291 89.9966L805.888 90.6259L805.891 90.6231L805.291 89.9966ZM791.921 98.2686L791.606 97.461L791.605 97.4617L791.921 98.2686ZM749.984 95.4792L749.559 96.2351L749.564 96.2374L749.984 95.4792ZM733.344 78.2618L734.106 77.8496L733.344 78.2618ZM733.44 23.1948L732.68 22.7776L732.68 22.7776L733.44 23.1948ZM790.479 2.65885L790.208 3.48232L790.212 3.48385L790.479 2.65885ZM803.849 9.87286L803.297 10.5416L803.3 10.5443L803.849 9.87286ZM817.7 36.323H793.653V38.0569H817.7V36.323ZM794.513 37.0783C794.181 34.5249 793.499 32.2015 792.456 30.1173L790.906 30.8926C791.851 32.7841 792.484 34.9174 792.793 37.3016L794.513 37.0783ZM792.456 30.1173C791.413 28.0299 790.028 26.2385 788.304 24.7507L787.171 26.0634C788.717 27.3971 789.961 29.0042 790.906 30.8926L792.456 30.1173ZM788.304 24.7507C786.574 23.2585 784.531 22.1309 782.189 21.3612L781.647 23.0084C783.793 23.7135 785.63 24.7341 787.171 26.0634L788.304 24.7507ZM782.203 21.366C779.886 20.5603 777.336 20.1636 774.56 20.1636V21.8975C777.17 21.8975 779.525 22.2703 781.633 23.0036L782.203 21.366ZM774.56 20.1636C769.635 20.1636 765.34 21.3723 761.714 23.8231L762.685 25.2596C765.985 23.0293 769.93 21.8975 774.56 21.8975V20.1636ZM761.711 23.8252C758.122 26.2739 755.379 29.7991 753.465 34.3532L755.064 35.025C756.869 30.7299 759.416 27.4899 762.688 25.2575L761.711 23.8252ZM753.463 34.3581C751.581 38.9149 750.656 44.3883 750.656 50.7523H752.39C752.39 44.5479 753.293 39.3125 755.066 35.02L753.463 34.3581ZM750.656 50.7523C750.656 57.3691 751.596 62.9742 753.513 67.5362L755.112 66.8644C753.31 62.5772 752.39 57.2169 752.39 50.7523H750.656ZM753.516 67.5432C755.463 72.0633 758.207 75.5263 761.77 77.879L762.726 76.4322C759.491 74.2962 756.945 71.1223 755.109 66.8574L753.516 67.5432ZM761.778 77.8842C765.368 80.1995 769.593 81.341 774.415 81.341V79.6071C769.876 79.6071 765.989 78.5363 762.718 76.427L761.778 77.8842ZM774.415 81.341C777.118 81.341 779.596 80.9949 781.841 80.2913L781.322 78.6369C779.271 79.2799 776.971 79.6071 774.415 79.6071V81.341ZM781.837 80.2924C784.109 79.5909 786.113 78.5665 787.84 77.2125L786.77 75.8483C785.225 77.0593 783.415 77.9907 781.326 78.6358L781.837 80.2924ZM787.841 77.2112C789.597 75.8268 791.033 74.1539 792.146 72.1979L790.639 71.3404C789.636 73.1036 788.346 74.6049 786.768 75.8496L787.841 77.2112ZM792.144 72.202C793.289 70.2141 794.074 67.9846 794.507 65.5227L792.799 65.2227C792.398 67.506 791.676 69.5408 790.641 71.3363L792.144 72.202ZM793.648 66.2396L817.694 66.3839L817.705 64.6501L793.658 64.5058L793.648 66.2396ZM816.837 65.4345C816.431 69.6805 815.197 73.8739 813.125 78.0183L814.676 78.7937C816.836 74.4737 818.135 70.0745 818.563 65.5995L816.837 65.4345ZM813.122 78.0231C811.086 82.1579 808.279 85.9402 804.692 89.37L805.891 90.6231C809.614 87.0633 812.546 83.1186 814.678 78.789L813.122 78.0231ZM804.695 89.3672C801.131 92.7442 796.773 95.4448 791.606 97.461L792.237 99.0762C797.587 96.9885 802.142 94.1744 805.888 90.6259L804.695 89.3672ZM791.605 97.4617C786.498 99.4668 780.613 100.48 773.935 100.48V102.214C780.786 102.214 786.893 101.174 792.238 99.0756L791.605 97.4617ZM773.935 100.48C765.153 100.48 757.316 98.554 750.404 94.7211L749.564 96.2374C756.759 100.228 764.89 102.214 773.935 102.214V100.48ZM750.409 94.7234C743.539 90.8651 738.105 85.2496 734.106 77.8496L732.581 78.6739C736.726 86.3432 742.386 92.206 749.559 96.2351L750.409 94.7234ZM734.106 77.8496C730.118 70.4705 728.103 61.4503 728.103 50.7523H726.369C726.369 61.6643 728.425 70.9838 732.581 78.6739L734.106 77.8496ZM728.103 50.7523C728.103 40.0238 730.15 30.9896 734.2 23.6119L732.68 22.7776C728.458 30.4692 726.369 39.8067 726.369 50.7523H728.103ZM734.2 23.6119C738.262 16.2109 743.744 10.6105 750.645 6.78353L749.804 5.26724C742.598 9.26346 736.889 15.1094 732.68 22.7776L734.2 23.6119ZM750.645 6.78353C757.559 2.94926 765.316 1.0249 773.935 1.0249V-0.708928C765.047 -0.708928 756.997 1.27831 749.804 5.26724L750.645 6.78353ZM773.935 1.0249C779.817 1.0249 785.239 1.84704 790.208 3.48231L790.75 1.83539C785.587 0.136177 779.979 -0.708928 773.935 -0.708928V1.0249ZM790.212 3.48385C795.181 5.08769 799.539 7.44163 803.297 10.5416L804.4 9.20415C800.463 5.95576 795.908 3.50035 790.745 1.83385L790.212 3.48385ZM803.3 10.5443C807.053 13.6094 810.106 17.3801 812.459 21.866L813.995 21.0607C811.538 16.3768 808.339 12.4205 804.397 9.20141L803.3 10.5443ZM812.459 21.866C814.805 26.3387 816.269 31.4701 816.837 37.2743L818.562 37.1055C817.976 31.1108 816.458 25.7579 813.995 21.0607L812.459 21.866ZM850.115 100V100.867H850.751L850.942 100.259L850.115 100ZM824.529 100L823.707 99.7229L823.321 100.867H824.529V100ZM857.761 1.5046V0.637689H857.139L856.94 1.22745L857.761 1.5046ZM889.455 1.5046L890.276 1.22745L890.077 0.637689H889.455V1.5046ZM922.688 100V100.867H923.895L923.509 99.7229L922.688 100ZM897.102 100L896.275 100.26L896.465 100.867H897.102V100ZM873.969 26.3208L874.796 26.0611L874.605 25.4539H873.969V26.3208ZM873.199 26.3208V25.4539H872.563L872.372 26.0616L873.199 26.3208ZM846.7 61.2367V60.3698H845.833V61.2367H846.7ZM900.18 61.2367H901.047V60.3698H900.18V61.2367ZM900.18 79.3198V80.1867H901.047V79.3198H900.18ZM846.7 79.3198H845.833V80.1867H846.7V79.3198ZM850.115 99.1331H824.529V100.867H850.115V99.1331ZM825.35 100.277L858.583 1.78175L856.94 1.22745L823.707 99.7229L825.35 100.277ZM857.761 2.37152H889.455V0.637689H857.761V2.37152ZM888.634 1.78175L921.866 100.277L923.509 99.7229L890.276 1.22745L888.634 1.78175ZM922.688 99.1331H897.102V100.867H922.688V99.1331ZM897.929 99.7403L874.796 26.0611L873.142 26.5805L896.275 100.26L897.929 99.7403ZM873.969 25.4539H873.199V27.1877H873.969V25.4539ZM872.372 26.0616L849.287 99.7408L850.942 100.259L874.027 26.58L872.372 26.0616ZM846.7 62.1036H900.18V60.3698H846.7V62.1036ZM899.313 61.2367V79.3198H901.047V61.2367H899.313ZM900.18 78.4529H846.7V80.1867H900.18V78.4529ZM847.567 79.3198V61.2367H845.833V79.3198H847.567ZM933.292 100H932.425V100.867H933.292V100ZM933.292 1.5046V0.637689H932.425V1.5046H933.292ZM957.098 1.5046H957.965V0.637689H957.098V1.5046ZM957.098 80.6664H956.232V81.5333H957.098V80.6664ZM998.074 80.6664H998.941V79.7995H998.074V80.6664ZM998.074 100V100.867H998.941V100H998.074ZM934.159 100V1.5046H932.425V100H934.159ZM933.292 2.37152H957.098V0.637689H933.292V2.37152ZM956.232 1.5046V80.6664H957.965V1.5046H956.232ZM957.098 81.5333H998.074V79.7995H957.098V81.5333ZM997.207 80.6664V100H998.941V80.6664H997.207ZM998.074 99.1331H933.292V100.867H998.074V99.1331ZM1063.3 1.5046H1064.17V0.637689H1063.3V1.5046ZM1063.3 100V100.867H1064.17V100H1063.3ZM1039.49 100H1038.63V100.867H1039.49V100ZM1039.49 1.5046V0.637689H1038.63V1.5046H1039.49ZM1062.43 1.5046V100H1064.17V1.5046H1062.43ZM1063.3 99.1331H1039.49V100.867H1063.3V99.1331ZM1040.36 100V1.5046H1038.63V100H1040.36ZM1039.49 2.37152H1063.3V0.637689H1039.49V2.37152ZM1162.07 1.5046H1162.94V0.637689H1162.07V1.5046ZM1162.07 100V100.867H1162.94V100H1162.07ZM1141.87 100L1141.16 100.492L1141.42 100.867H1141.87V100ZM1102.68 43.1535L1103.39 42.6614L1103.13 42.2866H1102.68V43.1535ZM1102.05 43.1535V42.2866H1101.19V43.1535H1102.05ZM1102.05 100V100.867H1102.92V100H1102.05ZM1078.25 100H1077.38V100.867H1078.25V100ZM1078.25 1.5046V0.637689H1077.38V1.5046H1078.25ZM1098.73 1.5046L1099.45 1.01564L1099.19 0.637689H1098.73V1.5046ZM1137.5 58.2549L1136.78 58.7438L1137.04 59.1218H1137.5V58.2549ZM1138.31 58.2549V59.1218H1139.18V58.2549H1138.31ZM1138.31 1.5046V0.637689H1137.45V1.5046H1138.31ZM1161.21 1.5046V100H1162.94V1.5046H1161.21ZM1162.07 99.1331H1141.87V100.867H1162.07V99.1331ZM1142.59 99.5079L1103.39 42.6614L1101.96 43.6456L1141.16 100.492L1142.59 99.5079ZM1102.68 42.2866H1102.05V44.0204H1102.68V42.2866ZM1101.19 43.1535V100H1102.92V43.1535H1101.19ZM1102.05 99.1331H1078.25V100.867H1102.05V99.1331ZM1079.11 100V1.5046H1077.38V100H1079.11ZM1078.25 2.37152H1098.73V0.637689H1078.25V2.37152ZM1098.02 1.99357L1136.78 58.7438L1138.21 57.7659L1099.45 1.01564L1098.02 1.99357ZM1137.5 59.1218H1138.31V57.388H1137.5V59.1218ZM1139.18 58.2549V1.5046H1137.45V58.2549H1139.18ZM1138.31 2.37152H1162.07V0.637689H1138.31V2.37152ZM1177.04 100H1176.17V100.867H1177.04V100ZM1177.04 1.5046V0.637689H1176.17V1.5046H1177.04ZM1244.28 1.5046H1245.14V0.637689H1244.28V1.5046ZM1244.28 20.8382V21.7051H1245.14V20.8382H1244.28ZM1200.85 20.8382V19.9713H1199.98V20.8382H1200.85ZM1200.85 41.0374H1199.98V41.9043H1200.85V41.0374ZM1240 41.0374H1240.86V40.1705H1240V41.0374ZM1240 60.4191V61.286H1240.86V60.4191H1240ZM1200.85 60.4191V59.5522H1199.98V60.4191H1200.85ZM1200.85 100V100.867H1201.72V100H1200.85ZM1177.91 100V1.5046H1176.17V100H1177.91ZM1177.04 2.37152H1244.28V0.637689H1177.04V2.37152ZM1243.41 1.5046V20.8382H1245.14V1.5046H1243.41ZM1244.28 19.9713H1200.85V21.7051H1244.28V19.9713ZM1199.98 20.8382V41.0374H1201.72V20.8382H1199.98ZM1200.85 41.9043H1240V40.1705H1200.85V41.9043ZM1239.13 41.0374V60.4191H1240.86V41.0374H1239.13ZM1240 59.5522H1200.85V61.286H1240V59.5522ZM1199.98 60.4191V100H1201.72V60.4191H1199.98ZM1200.85 99.1331H1177.04V100.867H1200.85V99.1331ZM1342.98 78.3099L1342.22 77.8902L1342.22 77.8902L1342.98 78.3099ZM1326.05 95.4792L1325.63 94.7195L1325.63 94.7203L1326.05 95.4792ZM1278.29 95.4311L1278.71 94.6736L1278.71 94.6736L1278.29 95.4311ZM1261.41 78.2618L1260.65 78.6789L1260.65 78.6828L1261.41 78.2618ZM1261.41 23.1948L1260.65 22.7751L1260.65 22.7776L1261.41 23.1948ZM1278.29 6.02539L1278.71 6.78434L1278.71 6.78434L1278.29 6.02539ZM1326.05 6.02539L1325.63 6.78434L1325.63 6.78514L1326.05 6.02539ZM1342.98 23.1948L1342.22 23.6144L1342.22 23.6144L1342.98 23.1948ZM1322.15 34.4967L1321.35 34.8227L1321.35 34.8277L1322.15 34.4967ZM1314.36 24.4452L1313.88 25.1633L1313.88 25.1654L1314.36 24.4452ZM1290.03 24.4452L1290.51 25.1654L1290.51 25.1654L1290.03 24.4452ZM1282.19 34.4967L1281.38 34.1658L1281.38 34.1707L1282.19 34.4967ZM1282.19 67.0079L1281.38 67.3339L1281.38 67.3388L1282.19 67.0079ZM1290.03 77.0594L1290.51 76.3392L1290.51 76.3392L1290.03 77.0594ZM1314.36 77.0594L1313.88 76.3391L1313.88 76.3413L1314.36 77.0594ZM1322.15 67.0079L1321.35 66.6769L1321.35 66.6819L1322.15 67.0079ZM1348.36 50.7523C1348.36 61.4798 1346.3 70.5131 1342.22 77.8902L1343.73 78.7295C1347.99 71.0373 1350.1 61.6989 1350.1 50.7523H1348.36ZM1342.22 77.8902C1338.12 85.2906 1332.6 90.8916 1325.63 94.7195L1326.46 96.239C1333.74 92.2437 1339.49 86.3984 1343.73 78.7295L1342.22 77.8902ZM1325.63 94.7203C1318.68 98.5548 1310.88 100.48 1302.19 100.48V102.214C1311.14 102.214 1319.24 100.227 1326.47 96.2382L1325.63 94.7203ZM1302.19 100.48C1293.48 100.48 1285.66 98.5391 1278.71 94.6736L1277.87 96.1886C1285.1 100.21 1293.21 102.214 1302.19 102.214V100.48ZM1278.71 94.6736C1271.78 90.8132 1266.26 85.2106 1262.17 77.8407L1260.65 78.6828C1264.89 86.318 1270.63 92.1617 1277.87 96.1886L1278.71 94.6736ZM1262.17 77.8446C1258.12 70.4666 1256.07 61.4483 1256.07 50.7523H1254.34C1254.34 61.6663 1256.43 70.9876 1260.65 78.6789L1262.17 77.8446ZM1256.07 50.7523C1256.07 40.0238 1258.12 30.9896 1262.17 23.6119L1260.65 22.7776C1256.43 30.4692 1254.34 39.8067 1254.34 50.7523H1256.07ZM1262.17 23.6144C1266.26 16.213 1271.78 10.612 1278.71 6.78434L1277.87 5.26644C1270.63 9.26202 1264.89 15.1072 1260.65 22.7751L1262.17 23.6144ZM1278.71 6.78434C1285.66 2.95003 1293.48 1.0249 1302.19 1.0249V-0.708928C1293.21 -0.708928 1285.1 1.27754 1277.87 5.26644L1278.71 6.78434ZM1302.19 1.0249C1310.88 1.0249 1318.68 2.94978 1325.63 6.78434L1326.47 5.26644C1319.24 1.27779 1311.14 -0.708928 1302.19 -0.708928V1.0249ZM1325.63 6.78514C1332.6 10.613 1338.12 16.214 1342.22 23.6144L1343.73 22.7751C1339.49 15.1062 1333.74 9.26094 1326.46 5.26564L1325.63 6.78514ZM1342.22 23.6144C1346.3 30.9915 1348.36 40.0248 1348.36 50.7523H1350.1C1350.1 39.8057 1347.99 30.4673 1343.73 22.7751L1342.22 23.6144ZM1325.76 50.7523C1325.76 44.2627 1324.84 38.7244 1322.95 34.1658L1321.35 34.8277C1323.12 39.1182 1324.03 44.417 1324.03 50.7523H1325.76ZM1322.96 34.1707C1321.11 29.6131 1318.41 26.1131 1314.84 23.7249L1313.88 25.1654C1317.11 27.3301 1319.61 30.5311 1321.35 34.8227L1322.96 34.1707ZM1314.85 23.727C1311.31 21.3382 1307.08 20.1636 1302.19 20.1636V21.8975C1306.79 21.8975 1310.67 22.9993 1313.88 25.1633L1314.85 23.727ZM1302.19 20.1636C1297.33 20.1636 1293.11 21.3389 1289.54 23.7249L1290.51 25.1654C1293.74 22.9986 1297.62 21.8975 1302.19 21.8975V20.1636ZM1289.54 23.7249C1285.98 26.1121 1283.27 29.6103 1281.38 34.1658L1282.99 34.8277C1284.76 30.5339 1287.27 27.3311 1290.51 25.1654L1289.54 23.7249ZM1281.38 34.1707C1279.53 38.7278 1278.63 44.2642 1278.63 50.7523H1280.36C1280.36 44.4155 1281.25 39.1149 1282.99 34.8227L1281.38 34.1707ZM1278.63 50.7523C1278.63 57.2404 1279.53 62.7768 1281.38 67.3339L1282.99 66.6819C1281.25 62.3897 1280.36 57.0891 1280.36 50.7523H1278.63ZM1281.38 67.3388C1283.27 71.8943 1285.98 75.3925 1289.54 77.7797L1290.51 76.3392C1287.27 74.1735 1284.76 70.9707 1282.99 66.6769L1281.38 67.3388ZM1289.54 77.7797C1293.11 80.1657 1297.33 81.341 1302.19 81.341V79.6071C1297.62 79.6071 1293.74 78.506 1290.51 76.3392L1289.54 77.7797ZM1302.19 81.341C1307.08 81.341 1311.31 80.1664 1314.85 77.7776L1313.88 76.3413C1310.67 78.5053 1306.79 79.6071 1302.19 79.6071V81.341ZM1314.84 77.7797C1318.41 75.3915 1321.11 71.8915 1322.96 67.3339L1321.35 66.6819C1319.61 70.9735 1317.11 74.1745 1313.88 76.3392L1314.84 77.7797ZM1322.95 67.3388C1324.84 62.7802 1325.76 57.2419 1325.76 50.7523H1324.03C1324.03 57.0876 1323.12 62.3864 1321.35 66.6769L1322.95 67.3388ZM1363.13 100H1362.26V100.867H1363.13V100ZM1363.13 1.5046V0.637689H1362.26V1.5046H1363.13ZM1422.91 5.49636L1422.52 6.2727L1422.53 6.27543L1422.91 5.49636ZM1435.36 16.8464L1434.62 17.2874L1434.62 17.2896L1435.36 16.8464ZM1435.27 51.7142L1436 52.1754L1436 52.1732L1435.27 51.7142ZM1422.57 62.5833L1422.93 63.3738L1422.93 63.372L1422.57 62.5833ZM1377.36 66.2865H1376.5V67.1534H1377.36V66.2865ZM1377.36 47.53V46.6631H1376.5V47.53H1377.36ZM1407.66 46.1353L1407.97 46.9439L1407.98 46.9417L1407.66 46.1353ZM1413.19 41.8069L1413.92 42.2794L1413.92 42.2739L1413.19 41.8069ZM1413.19 26.7537L1412.46 27.21L1412.46 27.2153L1413.19 26.7537ZM1407.66 22.2329L1407.33 23.0319L1407.33 23.0356L1407.66 22.2329ZM1386.93 20.6939V19.827H1386.07V20.6939H1386.93ZM1386.93 100V100.867H1387.8V100H1386.93ZM1418.58 54.9845L1419.34 54.5697L1419.09 54.1176H1418.58V54.9845ZM1443.11 100V100.867H1444.57L1443.87 99.5852L1443.11 100ZM1417.14 100L1416.37 100.408L1416.62 100.867H1417.14V100ZM1393.09 54.9845V54.1176H1391.64L1392.32 55.393L1393.09 54.9845ZM1363.99 100V1.5046H1362.26V100H1363.99ZM1363.13 2.37152H1403.81V0.637689H1363.13V2.37152ZM1403.81 2.37152C1411.09 2.37152 1417.31 3.68338 1422.52 6.27268L1423.29 4.72004C1417.79 1.987 1411.29 0.637689 1403.81 0.637689V2.37152ZM1422.53 6.27543C1427.77 8.83365 1431.79 12.5027 1434.62 17.2874L1436.11 16.4054C1433.1 11.3149 1428.82 7.41729 1423.29 4.71729L1422.53 6.27543ZM1434.62 17.2896C1437.44 22.0387 1438.87 27.699 1438.87 34.3043H1440.61C1440.61 27.4435 1439.12 21.4652 1436.11 16.4033L1434.62 17.2896ZM1438.87 34.3043C1438.87 41.006 1437.41 46.6423 1434.53 51.2552L1436 52.1732C1439.09 47.2315 1440.61 41.2612 1440.61 34.3043H1438.87ZM1434.53 51.2529C1431.65 55.8439 1427.55 59.3584 1422.21 61.7946L1422.93 63.372C1428.56 60.8064 1432.92 57.0749 1436 52.1754L1434.53 51.2529ZM1422.21 61.7928C1416.87 64.2004 1410.5 65.4196 1403.09 65.4196V67.1534C1410.69 67.1534 1417.31 65.9038 1422.93 63.3738L1422.21 61.7928ZM1403.09 65.4196H1377.36V67.1534H1403.09V65.4196ZM1378.23 66.2865V47.53H1376.5V66.2865H1378.23ZM1377.36 48.397H1398.67V46.6631H1377.36V48.397ZM1398.67 48.397C1402.33 48.397 1405.44 47.9242 1407.97 46.9439L1407.35 45.3268C1405.08 46.2061 1402.19 46.6631 1398.67 46.6631V48.397ZM1407.98 46.9417C1410.56 45.9234 1412.56 44.375 1413.92 42.2794L1412.47 41.3345C1411.33 43.0864 1409.64 44.4235 1407.34 45.329L1407.98 46.9417ZM1413.92 42.2739C1415.29 40.1413 1415.94 37.4651 1415.94 34.3043H1414.2C1414.2 37.2355 1413.6 39.5609 1412.46 41.3399L1413.92 42.2739ZM1415.94 34.3043C1415.94 31.1428 1415.29 28.4537 1413.93 26.2921L1412.46 27.2153C1413.6 29.0294 1414.2 31.374 1414.2 34.3043H1415.94ZM1413.93 26.2974C1412.57 24.1048 1410.58 22.4855 1407.99 21.4302L1407.33 23.0356C1409.62 23.9681 1411.31 25.3627 1412.46 27.21L1413.93 26.2974ZM1408 21.4339C1405.43 20.3505 1402.31 19.827 1398.67 19.827V21.5608C1402.15 21.5608 1405.03 22.0633 1407.33 23.0319L1408 21.4339ZM1398.67 19.827H1386.93V21.5608H1398.67V19.827ZM1386.07 20.6939V100H1387.8V20.6939H1386.07ZM1386.93 99.1331H1363.13V100.867H1386.93V99.1331ZM1417.82 55.3993L1442.35 100.415L1443.87 99.5852L1419.34 54.5697L1417.82 55.3993ZM1443.11 99.1331H1417.14V100.867H1443.11V99.1331ZM1417.9 99.5915L1393.85 54.5761L1392.32 55.393L1416.37 100.408L1417.9 99.5915ZM1393.09 55.8514H1418.58V54.1176H1393.09V55.8514ZM1452.8 1.5046V0.637689H1451.93V1.5046H1452.8ZM1482.28 1.5046L1483.08 1.17567L1482.86 0.637689H1482.28V1.5046ZM1507.29 62.4871L1506.49 62.816L1506.71 63.354H1507.29V62.4871ZM1508.44 62.4871V63.354H1509.02L1509.24 62.816L1508.44 62.4871ZM1533.45 1.5046V0.637689H1532.87L1532.65 1.17567L1533.45 1.5046ZM1562.93 1.5046H1563.8V0.637689H1562.93V1.5046ZM1562.93 100V100.867H1563.8V100H1562.93ZM1539.75 100H1538.88V100.867H1539.75V100ZM1539.75 39.4984H1540.62V38.6315H1539.75V39.4984ZM1538.93 39.4984V38.6315H1538.34L1538.13 39.1798L1538.93 39.4984ZM1515.27 99.3748V100.242H1515.86L1516.08 99.6934L1515.27 99.3748ZM1500.46 99.3748L1499.65 99.6919L1499.87 100.242H1500.46V99.3748ZM1476.8 39.1618L1477.6 38.8447L1477.39 38.2949H1476.8V39.1618ZM1475.98 39.1618V38.2949H1475.11V39.1618H1475.98ZM1475.98 100V100.867H1476.85V100H1475.98ZM1452.8 100H1451.93V100.867H1452.8V100ZM1452.8 2.37152H1482.28V0.637689H1452.8V2.37152ZM1481.48 1.83353L1506.49 62.816L1508.09 62.1582L1483.08 1.17567L1481.48 1.83353ZM1507.29 63.354H1508.44V61.6202H1507.29V63.354ZM1509.24 62.816L1534.25 1.83353L1532.65 1.17567L1507.64 62.1582L1509.24 62.816ZM1533.45 2.37152H1562.93V0.637689H1533.45V2.37152ZM1562.06 1.5046V100H1563.8V1.5046H1562.06ZM1562.93 99.1331H1539.75V100.867H1562.93V99.1331ZM1540.62 100V39.4984H1538.88V100H1540.62ZM1539.75 38.6315H1538.93V40.3653H1539.75V38.6315ZM1538.13 39.1798L1514.46 99.0562L1516.08 99.6934L1539.74 39.817L1538.13 39.1798ZM1515.27 98.5079H1500.46V100.242H1515.27V98.5079ZM1501.27 99.0577L1477.6 38.8447L1475.99 39.4788L1499.65 99.6919L1501.27 99.0577ZM1476.8 38.2949H1475.98V40.0287H1476.8V38.2949ZM1475.11 39.1618V100H1476.85V39.1618H1475.11ZM1475.98 99.1331H1452.8V100.867H1475.98V99.1331ZM1453.66 100V1.5046H1451.93V100H1453.66ZM1599.09 100V100.867H1599.72L1599.91 100.259L1599.09 100ZM1573.5 100L1572.68 99.7229L1572.29 100.867H1573.5V100ZM1606.73 1.5046V0.637689H1606.11L1605.91 1.22745L1606.73 1.5046ZM1638.43 1.5046L1639.25 1.22745L1639.05 0.637689H1638.43V1.5046ZM1671.66 100V100.867H1672.87L1672.48 99.7229L1671.66 100ZM1646.07 100L1645.25 100.26L1645.44 100.867H1646.07V100ZM1622.94 26.3208L1623.77 26.0611L1623.58 25.4539H1622.94V26.3208ZM1622.17 26.3208V25.4539H1621.53L1621.34 26.0616L1622.17 26.3208ZM1595.67 61.2367V60.3698H1594.8V61.2367H1595.67ZM1649.15 61.2367H1650.02V60.3698H1649.15V61.2367ZM1649.15 79.3198V80.1867H1650.02V79.3198H1649.15ZM1595.67 79.3198H1594.8V80.1867H1595.67V79.3198ZM1599.09 99.1331H1573.5V100.867H1599.09V99.1331ZM1574.32 100.277L1607.55 1.78175L1605.91 1.22745L1572.68 99.7229L1574.32 100.277ZM1606.73 2.37152H1638.43V0.637689H1606.73V2.37152ZM1637.6 1.78175L1670.84 100.277L1672.48 99.7229L1639.25 1.22745L1637.6 1.78175ZM1671.66 99.1331H1646.07V100.867H1671.66V99.1331ZM1646.9 99.7403L1623.77 26.0611L1622.11 26.5805L1645.25 100.26L1646.9 99.7403ZM1622.94 25.4539H1622.17V27.1877H1622.94V25.4539ZM1621.34 26.0616L1598.26 99.7408L1599.91 100.259L1623 26.58L1621.34 26.0616ZM1595.67 62.1036H1649.15V60.3698H1595.67V62.1036ZM1648.28 61.2367V79.3198H1650.02V61.2367H1648.28ZM1649.15 78.4529H1595.67V80.1867H1649.15V78.4529ZM1596.54 79.3198V61.2367H1594.8V79.3198H1596.54ZM1666.74 20.8382H1665.87V21.7051H1666.74V20.8382ZM1666.74 1.5046V0.637689H1665.87V1.5046H1666.74ZM1749.99 1.5046H1750.86V0.637689H1749.99V1.5046ZM1749.99 20.8382V21.7051H1750.86V20.8382H1749.99ZM1720.13 20.8382V19.9713H1719.26V20.8382H1720.13ZM1720.13 100V100.867H1720.99V100H1720.13ZM1696.66 100H1695.79V100.867H1696.66V100ZM1696.66 20.8382H1697.52V19.9713H1696.66V20.8382ZM1667.61 20.8382V1.5046H1665.87V20.8382H1667.61ZM1666.74 2.37152H1749.99V0.637689H1666.74V2.37152ZM1749.12 1.5046V20.8382H1750.86V1.5046H1749.12ZM1749.99 19.9713H1720.13V21.7051H1749.99V19.9713ZM1719.26 20.8382V100H1720.99V20.8382H1719.26ZM1720.13 99.1331H1696.66V100.867H1720.13V99.1331ZM1697.52 100V20.8382H1695.79V100H1697.52ZM1696.66 19.9713H1666.74V21.7051H1696.66V19.9713ZM1785.42 1.5046H1786.29V0.637689H1785.42V1.5046ZM1785.42 100V100.867H1786.29V100H1785.42ZM1761.62 100H1760.75V100.867H1761.62V100ZM1761.62 1.5046V0.637689H1760.75V1.5046H1761.62ZM1784.56 1.5046V100H1786.29V1.5046H1784.56ZM1785.42 99.1331H1761.62V100.867H1785.42V99.1331ZM1762.48 100V1.5046H1760.75V100H1762.48ZM1761.62 2.37152H1785.42V0.637689H1761.62V2.37152ZM1887.08 78.3099L1886.32 77.8902L1886.32 77.8902L1887.08 78.3099ZM1870.15 95.4792L1869.74 94.7195L1869.73 94.7203L1870.15 95.4792ZM1822.4 95.4311L1822.82 94.6736L1822.82 94.6736L1822.4 95.4311ZM1805.52 78.2618L1804.76 78.6789L1804.76 78.6828L1805.52 78.2618ZM1805.52 23.1948L1804.76 22.7751L1804.76 22.7776L1805.52 23.1948ZM1822.4 6.02539L1822.81 6.78434L1822.81 6.78434L1822.4 6.02539ZM1870.15 6.02539L1869.73 6.78434L1869.74 6.78514L1870.15 6.02539ZM1887.08 23.1948L1886.32 23.6144L1886.32 23.6144L1887.08 23.1948ZM1866.26 34.4967L1865.45 34.8227L1865.46 34.8277L1866.26 34.4967ZM1858.47 24.4452L1857.98 25.1633L1857.98 25.1654L1858.47 24.4452ZM1834.13 24.4452L1834.61 25.1654L1834.61 25.1654L1834.13 24.4452ZM1826.29 34.4967L1825.49 34.1658L1825.49 34.1707L1826.29 34.4967ZM1826.29 67.0079L1825.49 67.3339L1825.49 67.3388L1826.29 67.0079ZM1834.13 77.0594L1834.61 76.3392L1834.61 76.3392L1834.13 77.0594ZM1858.47 77.0594L1857.98 76.3391L1857.98 76.3413L1858.47 77.0594ZM1866.26 67.0079L1865.46 66.6769L1865.45 66.6819L1866.26 67.0079ZM1892.47 50.7523C1892.47 61.4798 1890.4 70.5131 1886.32 77.8902L1887.84 78.7295C1892.1 71.0373 1894.2 61.6989 1894.2 50.7523H1892.47ZM1886.32 77.8902C1882.23 85.2906 1876.7 90.8916 1869.74 94.7195L1870.57 96.239C1877.84 92.2437 1883.6 86.3984 1887.84 78.7295L1886.32 77.8902ZM1869.73 94.7203C1862.79 98.5548 1854.98 100.48 1846.3 100.48V102.214C1855.25 102.214 1863.35 100.227 1870.57 96.2382L1869.73 94.7203ZM1846.3 100.48C1837.58 100.48 1829.76 98.5391 1822.82 94.6736L1821.97 96.1886C1829.2 100.21 1837.32 102.214 1846.3 102.214V100.48ZM1822.82 94.6736C1815.88 90.8132 1810.37 85.2106 1806.27 77.8407L1804.76 78.6828C1809 86.318 1814.74 92.1617 1821.97 96.1886L1822.82 94.6736ZM1806.27 77.8446C1802.22 70.4666 1800.18 61.4483 1800.18 50.7523H1798.44C1798.44 61.6663 1800.53 70.9876 1804.76 78.6789L1806.27 77.8446ZM1800.18 50.7523C1800.18 40.0238 1802.23 30.9896 1806.27 23.6119L1804.76 22.7776C1800.53 30.4692 1798.44 39.8067 1798.44 50.7523H1800.18ZM1806.27 23.6144C1810.37 16.213 1815.88 10.612 1822.81 6.78434L1821.98 5.26644C1814.74 9.26202 1809 15.1072 1804.76 22.7751L1806.27 23.6144ZM1822.81 6.78434C1829.76 2.95003 1837.58 1.0249 1846.3 1.0249V-0.708928C1837.32 -0.708928 1829.2 1.27754 1821.98 5.26644L1822.81 6.78434ZM1846.3 1.0249C1854.98 1.0249 1862.79 2.94978 1869.73 6.78434L1870.57 5.26644C1863.35 1.27779 1855.25 -0.708928 1846.3 -0.708928V1.0249ZM1869.74 6.78514C1876.7 10.613 1882.23 16.214 1886.32 23.6144L1887.84 22.7751C1883.6 15.1062 1877.84 9.26094 1870.57 5.26564L1869.74 6.78514ZM1886.32 23.6144C1890.4 30.9915 1892.47 40.0248 1892.47 50.7523H1894.2C1894.2 39.8057 1892.1 30.4673 1887.84 22.7751L1886.32 23.6144ZM1869.87 50.7523C1869.87 44.2627 1868.94 38.7244 1867.06 34.1658L1865.46 34.8277C1867.23 39.1182 1868.13 44.417 1868.13 50.7523H1869.87ZM1867.06 34.1707C1865.21 29.6131 1862.51 26.1131 1858.95 23.7249L1857.98 25.1654C1861.22 27.3301 1863.71 30.5311 1865.45 34.8227L1867.06 34.1707ZM1858.95 23.727C1855.42 21.3382 1851.19 20.1636 1846.3 20.1636V21.8975C1850.9 21.8975 1854.78 22.9993 1857.98 25.1633L1858.95 23.727ZM1846.3 20.1636C1841.44 20.1636 1837.21 21.3389 1833.65 23.7249L1834.61 25.1654C1837.85 22.9986 1841.73 21.8975 1846.3 21.8975V20.1636ZM1833.65 23.7249C1830.08 26.1121 1827.37 29.6103 1825.49 34.1658L1827.09 34.8277C1828.87 30.5339 1831.38 27.3311 1834.61 25.1654L1833.65 23.7249ZM1825.49 34.1707C1823.64 38.7278 1822.73 44.2642 1822.73 50.7523H1824.47C1824.47 44.4155 1825.35 39.1149 1827.09 34.8227L1825.49 34.1707ZM1822.73 50.7523C1822.73 57.2404 1823.64 62.7768 1825.49 67.3339L1827.09 66.6819C1825.35 62.3897 1824.47 57.0891 1824.47 50.7523H1822.73ZM1825.49 67.3388C1827.37 71.8943 1830.08 75.3925 1833.65 77.7797L1834.61 76.3392C1831.38 74.1735 1828.87 70.9707 1827.09 66.6769L1825.49 67.3388ZM1833.65 77.7797C1837.21 80.1657 1841.44 81.341 1846.3 81.341V79.6071C1841.73 79.6071 1837.85 78.506 1834.61 76.3392L1833.65 77.7797ZM1846.3 81.341C1851.19 81.341 1855.42 80.1664 1858.95 77.7776L1857.98 76.3413C1854.78 78.5053 1850.9 79.6071 1846.3 79.6071V81.341ZM1858.95 77.7797C1862.51 75.3915 1865.21 71.8915 1867.06 67.3339L1865.45 66.6819C1863.71 70.9735 1861.22 74.1745 1857.98 76.3392L1858.95 77.7797ZM1867.06 67.3388C1868.94 62.7802 1869.87 57.2419 1869.87 50.7523H1868.13C1868.13 57.0876 1867.23 62.3864 1865.46 66.6769L1867.06 67.3388ZM1991.06 1.5046H1991.93V0.637689H1991.06V1.5046ZM1991.06 100V100.867H1991.93V100H1991.06ZM1970.86 100L1970.15 100.492L1970.41 100.867H1970.86V100ZM1931.66 43.1535L1932.38 42.6614L1932.12 42.2866H1931.66V43.1535ZM1931.04 43.1535V42.2866H1930.17V43.1535H1931.04ZM1931.04 100V100.867H1931.91V100H1931.04ZM1907.23 100H1906.37V100.867H1907.23V100ZM1907.23 1.5046V0.637689H1906.37V1.5046H1907.23ZM1927.72 1.5046L1928.44 1.01564L1928.18 0.637689H1927.72V1.5046ZM1966.48 58.2549L1965.77 58.7438L1966.03 59.1218H1966.48V58.2549ZM1967.3 58.2549V59.1218H1968.17V58.2549H1967.3ZM1967.3 1.5046V0.637689H1966.43V1.5046H1967.3ZM1990.19 1.5046V100H1991.93V1.5046H1990.19ZM1991.06 99.1331H1970.86V100.867H1991.06V99.1331ZM1971.57 99.5079L1932.38 42.6614L1930.95 43.6456L1970.15 100.492L1971.57 99.5079ZM1931.66 42.2866H1931.04V44.0204H1931.66V42.2866ZM1930.17 43.1535V100H1931.91V43.1535H1930.17ZM1931.04 99.1331H1907.23V100.867H1931.04V99.1331ZM1908.1 100V1.5046H1906.37V100H1908.1ZM1907.23 2.37152H1927.72V0.637689H1907.23V2.37152ZM1927 1.99357L1965.77 58.7438L1967.2 57.7659L1928.44 1.01564L1927 1.99357ZM1966.48 59.1218H1967.3V57.388H1966.48V59.1218ZM1968.17 58.2549V1.5046H1966.43V58.2549H1968.17ZM1967.3 2.37152H1991.06V0.637689H1967.3V2.37152ZM212.906 124.838H212.039V125.705H212.906V124.838ZM212.906 105.505V104.638H212.039V105.505H212.906ZM296.156 105.505H297.023V104.638H296.156V105.505ZM296.156 124.838V125.705H297.023V124.838H296.156ZM266.29 124.838V123.971H265.423V124.838H266.29ZM266.29 204V204.867H267.157V204H266.29ZM242.82 204H241.954V204.867H242.82V204ZM242.82 124.838H243.687V123.971H242.82V124.838ZM213.773 124.838V105.505H212.039V124.838H213.773ZM212.906 106.372H296.156V104.638H212.906V106.372ZM295.289 105.505V124.838H297.023V105.505H295.289ZM296.156 123.971H266.29V125.705H296.156V123.971ZM265.423 124.838V204H267.157V124.838H265.423ZM266.29 203.133H242.82V204.867H266.29V203.133ZM243.687 204V124.838H241.954V204H243.687ZM242.82 123.971H212.906V125.705H242.82V123.971ZM307.783 204H306.916V204.867H307.783V204ZM307.783 105.505V104.638H306.916V105.505H307.783ZM376.46 105.505H377.327V104.638H376.46V105.505ZM376.46 124.838V125.705H377.327V124.838H376.46ZM331.589 124.838V123.971H330.722V124.838H331.589ZM331.589 145.037H330.722V145.904H331.589V145.037ZM372.949 145.037H373.816V144.171H372.949V145.037ZM372.949 164.419V165.286H373.816V164.419H372.949ZM331.589 164.419V163.552H330.722V164.419H331.589ZM331.589 184.666H330.722V185.533H331.589V184.666ZM376.46 184.666H377.327V183.8H376.46V184.666ZM376.46 204V204.867H377.327V204H376.46ZM308.65 204V105.505H306.916V204H308.65ZM307.783 106.372H376.46V104.638H307.783V106.372ZM375.593 105.505V124.838H377.327V105.505H375.593ZM376.46 123.971H331.589V125.705H376.46V123.971ZM330.722 124.838V145.037H332.456V124.838H330.722ZM331.589 145.904H372.949V144.171H331.589V145.904ZM372.082 145.037V164.419H373.816V145.037H372.082ZM372.949 163.552H331.589V165.286H372.949V163.552ZM330.722 164.419V184.666H332.456V164.419H330.722ZM331.589 185.533H376.46V183.8H331.589V185.533ZM375.593 184.666V204H377.327V184.666H375.593ZM376.46 203.133H307.783V204.867H376.46V203.133ZM480.775 141.19V142.057H481.731L481.638 141.106L480.775 141.19ZM456.728 141.19L455.868 141.302L455.966 142.057H456.728V141.19ZM454.756 134.505L453.981 134.893L453.981 134.893L454.756 134.505ZM450.813 129.407L451.379 128.751L451.379 128.751L450.813 129.407ZM444.993 126.185L444.709 127.004L444.716 127.006L444.723 127.008L444.993 126.185ZM425.275 128.541L424.79 127.823L424.786 127.825L425.275 128.541ZM417.34 138.689L416.54 138.353L416.538 138.358L417.34 138.689ZM417.388 171.2L416.588 171.536L416.591 171.543L417.388 171.2ZM425.323 181.156L424.845 181.879L424.853 181.884L425.323 181.156ZM444.657 183.464L444.401 182.636L444.397 182.637L444.657 183.464ZM450.38 180.53L450.915 181.213L450.917 181.211L450.38 180.53ZM454.468 175.769L453.717 175.336L453.714 175.34L454.468 175.769ZM456.728 169.373L456.733 168.506L456.001 168.501L455.874 169.223L456.728 169.373ZM480.775 169.517L481.638 169.599L481.728 168.656L480.78 168.65L480.775 169.517ZM476.975 182.406L476.2 182.018L476.198 182.023L476.975 182.406ZM468.367 193.997L468.963 194.626L468.966 194.623L468.367 193.997ZM454.997 202.269L454.682 201.461L454.68 201.462L454.997 202.269ZM413.059 199.479L412.635 200.235L412.639 200.237L413.059 199.479ZM396.419 182.262L397.182 181.85L396.419 182.262ZM396.515 127.195L395.755 126.778L395.755 126.778L396.515 127.195ZM453.554 106.659L453.283 107.482L453.288 107.484L453.554 106.659ZM466.924 113.873L466.372 114.542L466.376 114.544L466.924 113.873ZM480.775 140.323H456.728V142.057H480.775V140.323ZM457.588 141.078C457.256 138.525 456.574 136.202 455.532 134.117L453.981 134.893C454.927 136.784 455.559 138.917 455.868 141.302L457.588 141.078ZM455.532 134.117C454.488 132.03 453.103 130.238 451.379 128.751L450.246 130.063C451.792 131.397 453.037 133.004 453.981 134.893L455.532 134.117ZM451.379 128.751C449.649 127.258 447.607 126.131 445.264 125.361L444.723 127.008C446.869 127.713 448.706 128.734 450.246 130.063L451.379 128.751ZM445.278 125.366C442.962 124.56 440.411 124.164 437.635 124.164V125.897C440.246 125.897 442.6 126.27 444.709 127.004L445.278 125.366ZM437.635 124.164C432.71 124.164 428.415 125.372 424.79 127.823L425.76 129.26C429.06 127.029 433.005 125.897 437.635 125.897V124.164ZM424.786 127.825C421.197 130.274 418.454 133.799 416.54 138.353L418.139 139.025C419.944 134.73 422.491 131.49 425.764 129.257L424.786 127.825ZM416.538 138.358C414.656 142.915 413.731 148.388 413.731 154.752H415.465C415.465 148.548 416.368 143.312 418.141 139.02L416.538 138.358ZM413.731 154.752C413.731 161.369 414.671 166.974 416.588 171.536L418.187 170.864C416.385 166.577 415.465 161.217 415.465 154.752H413.731ZM416.591 171.543C418.538 176.063 421.283 179.526 424.845 181.879L425.801 180.432C422.566 178.296 420.021 175.122 418.184 170.857L416.591 171.543ZM424.853 181.884C428.444 184.199 432.668 185.341 437.491 185.341V183.607C432.951 183.607 429.064 182.536 425.793 180.427L424.853 181.884ZM437.491 185.341C440.193 185.341 442.671 184.995 444.916 184.291L444.397 182.637C442.346 183.28 440.046 183.607 437.491 183.607V185.341ZM444.912 184.292C447.184 183.591 449.188 182.567 450.915 181.213L449.845 179.848C448.301 181.059 446.49 181.991 444.401 182.636L444.912 184.292ZM450.917 181.211C452.672 179.827 454.108 178.154 455.221 176.198L453.714 175.34C452.711 177.104 451.422 178.605 449.843 179.85L450.917 181.211ZM455.219 176.202C456.364 174.214 457.149 171.985 457.582 169.523L455.874 169.223C455.473 171.506 454.751 173.541 453.717 175.336L455.219 176.202ZM456.723 170.24L480.77 170.384L480.78 168.65L456.733 168.506L456.723 170.24ZM479.912 169.435C479.506 173.68 478.272 177.874 476.2 182.018L477.751 182.794C479.911 178.474 481.21 174.074 481.638 169.599L479.912 169.435ZM476.198 182.023C474.162 186.158 471.355 189.94 467.768 193.37L468.966 194.623C472.689 191.063 475.621 187.119 477.753 182.789L476.198 182.023ZM467.771 193.367C464.206 196.744 459.848 199.445 454.682 201.461L455.312 203.076C460.662 200.988 465.217 198.174 468.963 194.626L467.771 193.367ZM454.68 201.462C449.573 203.467 443.688 204.48 437.01 204.48V206.214C443.862 206.214 449.968 205.174 455.314 203.076L454.68 201.462ZM437.01 204.48C428.228 204.48 420.392 202.554 413.48 198.721L412.639 200.237C419.834 204.228 427.965 206.214 437.01 206.214V204.48ZM413.484 198.723C406.614 194.865 401.181 189.25 397.182 181.85L395.656 182.674C399.801 190.343 405.461 196.206 412.635 200.235L413.484 198.723ZM397.182 181.85C393.194 174.47 391.178 165.45 391.178 154.752H389.444C389.444 165.664 391.5 174.984 395.656 182.674L397.182 181.85ZM391.178 154.752C391.178 144.024 393.225 134.99 397.275 127.612L395.755 126.778C391.533 134.469 389.444 143.807 389.444 154.752H391.178ZM397.275 127.612C401.338 120.211 406.819 114.611 413.72 110.784L412.879 109.267C405.673 113.263 399.965 119.109 395.755 126.778L397.275 127.612ZM413.72 110.784C420.634 106.949 428.391 105.025 437.01 105.025V103.291C428.123 103.291 420.072 105.278 412.879 109.267L413.72 110.784ZM437.01 105.025C442.892 105.025 448.314 105.847 453.283 107.482L453.825 105.835C448.662 104.136 443.055 103.291 437.01 103.291V105.025ZM453.288 107.484C458.256 109.088 462.615 111.442 466.372 114.542L467.476 113.204C463.538 109.956 458.983 107.5 453.82 105.834L453.288 107.484ZM466.376 114.544C470.129 117.609 473.182 121.38 475.534 125.866L477.07 125.061C474.613 120.377 471.414 116.421 467.472 113.201L466.376 114.544ZM475.534 125.866C477.88 130.339 479.344 135.47 479.912 141.274L481.638 141.106C481.051 135.111 479.533 129.758 477.07 125.061L475.534 125.866ZM494.397 204H493.53V204.867H494.397V204ZM494.397 105.505V104.638H493.53V105.505H494.397ZM518.204 105.505H519.07V104.638H518.204V105.505ZM518.204 145.037H517.337V145.904H518.204V145.037ZM557.015 145.037V145.904H557.882V145.037H557.015ZM557.015 105.505V104.638H556.148V105.505H557.015ZM580.773 105.505H581.64V104.638H580.773V105.505ZM580.773 204V204.867H581.64V204H580.773ZM557.015 204H556.148V204.867H557.015V204ZM557.015 164.419H557.882V163.552H557.015V164.419ZM518.204 164.419V163.552H517.337V164.419H518.204ZM518.204 204V204.867H519.07V204H518.204ZM495.264 204V105.505H493.53V204H495.264ZM494.397 106.372H518.204V104.638H494.397V106.372ZM517.337 105.505V145.037H519.07V105.505H517.337ZM518.204 145.904H557.015V144.171H518.204V145.904ZM557.882 145.037V105.505H556.148V145.037H557.882ZM557.015 106.372H580.773V104.638H557.015V106.372ZM579.906 105.505V204H581.64V105.505H579.906ZM580.773 203.133H557.015V204.867H580.773V203.133ZM557.882 204V164.419H556.148V204H557.882ZM557.015 163.552H518.204V165.286H557.015V163.552ZM517.337 164.419V204H519.07V164.419H517.337ZM518.204 203.133H494.397V204.867H518.204V203.133ZM679.533 105.505H680.4V104.638H679.533V105.505ZM679.533 204V204.867H680.4V204H679.533ZM659.334 204L658.62 204.492L658.879 204.867H659.334V204ZM620.138 147.154L620.851 146.661L620.593 146.287H620.138V147.154ZM619.512 147.154V146.287H618.645V147.154H619.512ZM619.512 204V204.867H620.379V204H619.512ZM595.706 204H594.839V204.867H595.706V204ZM595.706 105.505V104.638H594.839V105.505H595.706ZM616.194 105.505L616.91 105.016L616.652 104.638H616.194V105.505ZM654.957 162.255L654.241 162.744L654.5 163.122H654.957V162.255ZM655.775 162.255V163.122H656.642V162.255H655.775ZM655.775 105.505V104.638H654.908V105.505H655.775ZM678.666 105.505V204H680.4V105.505H678.666ZM679.533 203.133H659.334V204.867H679.533V203.133ZM660.047 203.508L620.851 146.661L619.424 147.646L658.62 204.492L660.047 203.508ZM620.138 146.287H619.512V148.02H620.138V146.287ZM618.645 147.154V204H620.379V147.154H618.645ZM619.512 203.133H595.706V204.867H619.512V203.133ZM596.573 204V105.505H594.839V204H596.573ZM595.706 106.372H616.194V104.638H595.706V106.372ZM615.478 105.994L654.241 162.744L655.673 161.766L616.91 105.016L615.478 105.994ZM654.957 163.122H655.775V161.388H654.957V163.122ZM656.642 162.255V105.505H654.908V162.255H656.642ZM655.775 106.372H679.533V104.638H655.775V106.372ZM781.215 182.31L780.456 181.89L780.456 181.89L781.215 182.31ZM764.286 199.479L763.868 198.719L763.867 198.72L764.286 199.479ZM716.529 199.431L716.95 198.674L716.95 198.674L716.529 199.431ZM699.648 182.262L698.888 182.679L698.89 182.683L699.648 182.262ZM699.648 127.195L698.89 126.775L698.888 126.778L699.648 127.195ZM716.529 110.025L716.948 110.784L716.948 110.784L716.529 110.025ZM764.286 110.025L763.867 110.784L763.868 110.785L764.286 110.025ZM781.215 127.195L780.456 127.614L780.456 127.614L781.215 127.195ZM760.39 138.497L759.587 138.823L759.589 138.828L760.39 138.497ZM752.599 128.445L752.113 129.163L752.117 129.165L752.599 128.445ZM728.264 128.445L728.746 129.165L728.746 129.165L728.264 128.445ZM720.424 138.497L719.623 138.166L719.621 138.171L720.424 138.497ZM720.424 171.008L719.621 171.334L719.623 171.339L720.424 171.008ZM728.264 181.059L728.746 180.339L728.746 180.339L728.264 181.059ZM752.599 181.059L752.117 180.339L752.113 180.341L752.599 181.059ZM760.39 171.008L759.589 170.677L759.587 170.682L760.39 171.008ZM786.6 154.752C786.6 165.48 784.537 174.513 780.456 181.89L781.973 182.729C786.228 175.037 788.334 165.699 788.334 154.752H786.6ZM780.456 181.89C776.362 189.291 770.834 194.892 763.868 198.719L764.703 200.239C771.973 196.244 777.731 190.398 781.973 182.729L780.456 181.89ZM763.867 198.72C756.921 202.555 749.115 204.48 740.431 204.48V206.214C749.382 206.214 757.479 204.227 764.705 200.238L763.867 198.72ZM740.431 204.48C731.716 204.48 723.896 202.539 716.95 198.674L716.107 200.189C723.334 204.21 731.448 206.214 740.431 206.214V204.48ZM716.95 198.674C710.014 194.813 704.5 189.211 700.406 181.841L698.89 182.683C703.132 190.318 708.872 196.162 716.107 200.189L716.95 198.674ZM700.408 181.845C696.358 174.467 694.311 165.448 694.311 154.752H692.577C692.577 165.666 694.666 174.988 698.888 182.679L700.408 181.845ZM694.311 154.752C694.311 144.024 696.358 134.99 700.408 127.612L698.888 126.778C694.666 134.469 692.577 143.807 692.577 154.752H694.311ZM700.407 127.614C704.501 120.213 710.014 114.612 716.948 110.784L716.11 109.266C708.872 113.262 703.131 119.107 698.89 126.775L700.407 127.614ZM716.948 110.784C723.894 106.95 731.715 105.025 740.431 105.025V103.291C731.45 103.291 723.336 105.278 716.11 109.266L716.948 110.784ZM740.431 105.025C749.115 105.025 756.921 106.95 763.867 110.784L764.705 109.266C757.479 105.278 749.382 103.291 740.431 103.291V105.025ZM763.868 110.785C770.834 114.613 776.362 120.214 780.456 127.614L781.973 126.775C777.731 119.106 771.973 113.261 764.703 109.266L763.868 110.785ZM780.456 127.614C784.537 134.991 786.6 144.025 786.6 154.752H788.334C788.334 143.806 786.228 134.467 781.973 126.775L780.456 127.614ZM763.998 154.752C763.998 148.263 763.074 142.724 761.191 138.166L759.589 138.828C761.361 143.118 762.265 148.417 762.265 154.752H763.998ZM761.193 138.171C759.344 133.613 756.647 130.113 753.081 127.725L752.117 129.165C755.348 131.33 757.845 134.531 759.587 138.823L761.193 138.171ZM753.085 127.727C749.552 125.338 745.32 124.164 740.431 124.164V125.897C745.033 125.897 748.913 126.999 752.113 129.163L753.085 127.727ZM740.431 124.164C735.573 124.164 731.343 125.339 727.781 127.725L728.746 129.165C731.981 126.999 735.863 125.897 740.431 125.897V124.164ZM727.781 127.725C724.217 130.112 721.505 133.61 719.623 138.166L721.226 138.828C722.999 134.534 725.513 131.331 728.746 129.165L727.781 127.725ZM719.621 138.171C717.772 142.728 716.864 148.264 716.864 154.752H718.598C718.598 148.415 719.486 143.115 721.228 138.823L719.621 138.171ZM716.864 154.752C716.864 161.24 717.772 166.777 719.621 171.334L721.228 170.682C719.486 166.39 718.598 161.089 718.598 154.752H716.864ZM719.623 171.339C721.505 175.894 724.217 179.393 727.781 181.78L728.746 180.339C725.513 178.173 722.999 174.971 721.226 170.677L719.623 171.339ZM727.781 181.78C731.343 184.166 735.573 185.341 740.431 185.341V183.607C735.863 183.607 731.981 182.506 728.746 180.339L727.781 181.78ZM740.431 185.341C745.32 185.341 749.552 184.166 753.085 181.778L752.113 180.341C748.913 182.505 745.033 183.607 740.431 183.607V185.341ZM753.081 181.78C756.647 179.392 759.344 175.891 761.193 171.334L759.587 170.682C757.845 174.974 755.348 178.174 752.117 180.339L753.081 181.78ZM761.191 171.339C763.074 166.78 763.998 161.242 763.998 154.752H762.265C762.265 161.088 761.361 166.386 759.589 170.677L761.191 171.339ZM801.366 204H800.499V204.867H801.366V204ZM801.366 105.505V104.638H800.499V105.505H801.366ZM825.172 105.505H826.039V104.638H825.172V105.505ZM825.172 184.666H824.305V185.533H825.172V184.666ZM866.148 184.666H867.015V183.8H866.148V184.666ZM866.148 204V204.867H867.015V204H866.148ZM802.233 204V105.505H800.499V204H802.233ZM801.366 106.372H825.172V104.638H801.366V106.372ZM824.305 105.505V184.666H826.039V105.505H824.305ZM825.172 185.533H866.148V183.8H825.172V185.533ZM865.281 184.666V204H867.015V184.666H865.281ZM866.148 203.133H801.366V204.867H866.148V203.133ZM961.349 182.31L960.59 181.89L960.59 181.89L961.349 182.31ZM944.42 199.479L944.002 198.719L944.001 198.72L944.42 199.479ZM896.663 199.431L897.085 198.674L897.085 198.674L896.663 199.431ZM879.782 182.262L879.022 182.679L879.024 182.683L879.782 182.262ZM879.782 127.195L879.024 126.775L879.022 126.778L879.782 127.195ZM896.663 110.025L897.082 110.784L897.082 110.784L896.663 110.025ZM944.42 110.025L944.001 110.784L944.002 110.785L944.42 110.025ZM961.349 127.195L960.59 127.614L960.59 127.614L961.349 127.195ZM940.524 138.497L939.721 138.823L939.723 138.828L940.524 138.497ZM932.733 128.445L932.247 129.163L932.251 129.165L932.733 128.445ZM908.398 128.445L908.88 129.165L908.88 129.165L908.398 128.445ZM900.559 138.497L899.757 138.166L899.755 138.171L900.559 138.497ZM900.559 171.008L899.755 171.334L899.757 171.339L900.559 171.008ZM908.398 181.059L908.88 180.339L908.88 180.339L908.398 181.059ZM932.733 181.059L932.251 180.339L932.247 180.341L932.733 181.059ZM940.524 171.008L939.723 170.677L939.721 170.682L940.524 171.008ZM966.734 154.752C966.734 165.48 964.671 174.513 960.59 181.89L962.107 182.729C966.363 175.037 968.468 165.699 968.468 154.752H966.734ZM960.59 181.89C956.496 189.291 950.968 194.892 944.002 198.719L944.837 200.239C952.107 196.244 957.865 190.398 962.107 182.729L960.59 181.89ZM944.001 198.72C937.055 202.555 929.249 204.48 920.565 204.48V206.214C929.516 206.214 937.613 204.227 944.839 200.238L944.001 198.72ZM920.565 204.48C911.85 204.48 904.03 202.539 897.085 198.674L896.241 200.189C903.468 204.21 911.583 206.214 920.565 206.214V204.48ZM897.085 198.674C890.148 194.813 884.634 189.211 880.54 181.841L879.024 182.683C883.266 190.318 889.006 196.162 896.241 200.189L897.085 198.674ZM880.542 181.845C876.492 174.467 874.445 165.448 874.445 154.752H872.711C872.711 165.666 874.8 174.988 879.022 182.679L880.542 181.845ZM874.445 154.752C874.445 144.024 876.492 134.99 880.542 127.612L879.022 126.778C874.8 134.469 872.711 143.807 872.711 154.752H874.445ZM880.541 127.614C884.635 120.213 890.148 114.612 897.082 110.784L896.244 109.266C889.006 113.262 883.265 119.107 879.024 126.775L880.541 127.614ZM897.082 110.784C904.028 106.95 911.849 105.025 920.565 105.025V103.291C911.584 103.291 903.47 105.278 896.244 109.266L897.082 110.784ZM920.565 105.025C929.249 105.025 937.055 106.95 944.001 110.784L944.839 109.266C937.613 105.278 929.516 103.291 920.565 103.291V105.025ZM944.002 110.785C950.968 114.613 956.496 120.214 960.59 127.614L962.107 126.775C957.865 119.106 952.107 113.261 944.837 109.266L944.002 110.785ZM960.59 127.614C964.671 134.991 966.734 144.025 966.734 154.752H968.468C968.468 143.806 966.363 134.467 962.107 126.775L960.59 127.614ZM944.132 154.752C944.132 148.263 943.208 142.724 941.325 138.166L939.723 138.828C941.495 143.118 942.399 148.417 942.399 154.752H944.132ZM941.328 138.171C939.478 133.613 936.781 130.113 933.216 127.725L932.251 129.165C935.482 131.33 937.979 134.531 939.721 138.823L941.328 138.171ZM933.219 127.727C929.686 125.338 925.454 124.164 920.565 124.164V125.897C925.167 125.897 929.047 126.999 932.247 129.163L933.219 127.727ZM920.565 124.164C915.707 124.164 911.477 125.339 907.915 127.725L908.88 129.165C912.115 126.999 915.997 125.897 920.565 125.897V124.164ZM907.915 127.725C904.351 130.112 901.639 133.61 899.757 138.166L901.36 138.828C903.133 134.534 905.647 131.331 908.88 129.165L907.915 127.725ZM899.755 138.171C897.906 142.728 896.998 148.264 896.998 154.752H898.732C898.732 148.415 899.62 143.115 901.362 138.823L899.755 138.171ZM896.998 154.752C896.998 161.24 897.906 166.777 899.755 171.334L901.362 170.682C899.62 166.39 898.732 161.089 898.732 154.752H896.998ZM899.757 171.339C901.639 175.894 904.351 179.393 907.915 181.78L908.88 180.339C905.647 178.173 903.133 174.971 901.36 170.677L899.757 171.339ZM907.915 181.78C911.477 184.166 915.707 185.341 920.565 185.341V183.607C915.997 183.607 912.115 182.506 908.88 180.339L907.915 181.78ZM920.565 185.341C925.454 185.341 929.686 184.166 933.219 181.778L932.247 180.341C929.047 182.505 925.167 183.607 920.565 183.607V185.341ZM933.216 181.78C936.781 179.392 939.478 175.891 941.328 171.334L939.721 170.682C937.979 174.974 935.482 178.174 932.251 180.339L933.216 181.78ZM941.325 171.339C943.208 166.78 944.132 161.242 944.132 154.752H942.399C942.399 161.088 941.495 166.386 939.723 170.677L941.325 171.339ZM1046.14 137.679L1045.3 137.905L1045.47 138.546H1046.14V137.679ZM1043.73 132.341L1043.01 132.825L1043.02 132.832L1043.73 132.341ZM1034.55 125.896L1034.31 126.729L1034.32 126.732L1034.55 125.896ZM1015.6 128.493L1015.12 127.77L1015.12 127.772L1015.6 128.493ZM1007.57 138.593L1008.36 138.936L1008.36 138.934L1007.57 138.593ZM1007.47 170.767L1008.27 170.439L1008.27 170.439L1007.47 170.767ZM1015.41 180.963L1015.89 180.245L1015.89 180.245L1015.41 180.963ZM1039.07 182.358L1039.44 183.143L1039.44 183.141L1039.07 182.358ZM1045.99 176.25L1045.25 175.805L1045.25 175.805L1045.99 176.25ZM1048.35 166.968L1048.45 166.107L1047.48 165.991V166.968H1048.35ZM1052.77 167.497V168.364L1052.88 166.636L1052.77 167.497ZM1028.82 167.497H1027.96V168.364H1028.82V167.497ZM1028.82 150.135V149.268H1027.96V150.135H1028.82ZM1071.29 150.135H1072.16V149.268H1071.29V150.135ZM1065.66 185.821L1064.92 185.376L1064.92 185.379L1065.66 185.821ZM1050.27 200.297L1049.88 199.526L1049.88 199.527L1050.27 200.297ZM1003.05 199.239L1003.48 198.486L1003.48 198.486L1003.05 199.239ZM986.405 181.829L985.638 182.232L985.639 182.233L986.405 181.829ZM984.049 133.399L984.858 133.71L984.858 133.709L984.049 133.399ZM994.1 117.432L993.485 116.821L993.483 116.823L994.1 117.432ZM1009.11 107.525L1008.79 106.718L1008.79 106.718L1009.11 107.525ZM1043.44 106.611L1043.17 107.433L1043.17 107.434L1043.44 106.611ZM1056.53 113.536L1055.99 114.217L1055.99 114.219L1056.53 113.536ZM1065.81 124.165L1065.06 124.599L1065.06 124.599L1065.81 124.165ZM1070.23 137.679V138.546H1071.21L1071.09 137.578L1070.23 137.679ZM1046.97 137.453C1046.41 135.35 1045.57 133.479 1044.45 131.85L1043.02 132.832C1044.01 134.281 1044.78 135.968 1045.3 137.905L1046.97 137.453ZM1044.45 131.856C1043.34 130.199 1041.96 128.793 1040.34 127.642L1039.34 129.056C1040.79 130.086 1042.01 131.341 1043.01 132.825L1044.45 131.856ZM1040.34 127.642C1038.71 126.488 1036.85 125.629 1034.78 125.06L1034.32 126.732C1036.22 127.253 1037.89 128.03 1039.34 129.056L1040.34 127.642ZM1034.79 125.064C1032.71 124.461 1030.45 124.164 1028.01 124.164V125.897C1030.31 125.897 1032.41 126.177 1034.31 126.729L1034.79 125.064ZM1028.01 124.164C1023.08 124.164 1018.78 125.355 1015.12 127.77L1016.08 129.217C1019.41 127.014 1023.37 125.897 1028.01 125.897V124.164ZM1015.12 127.772C1011.49 130.188 1008.72 133.697 1006.77 138.252L1008.36 138.934C1010.2 134.639 1012.78 131.416 1016.08 129.215L1015.12 127.772ZM1006.77 138.25C1004.82 142.779 1003.86 148.241 1003.86 154.608H1005.6C1005.6 148.406 1006.53 143.192 1008.36 138.936L1006.77 138.25ZM1003.86 154.608C1003.86 161.004 1004.79 166.508 1006.67 171.096L1008.27 170.439C1006.5 166.113 1005.6 160.845 1005.6 154.608H1003.86ZM1006.67 171.096C1008.55 175.686 1011.3 179.231 1014.92 181.681L1015.89 180.245C1012.59 178.014 1010.05 174.762 1008.27 170.439L1006.67 171.096ZM1014.92 181.681C1018.55 184.135 1022.93 185.341 1028.01 185.341V183.607C1023.21 183.607 1019.19 182.472 1015.89 180.245L1014.92 181.681ZM1028.01 185.341C1032.46 185.341 1036.28 184.622 1039.44 183.143L1038.7 181.573C1035.83 182.916 1032.28 183.607 1028.01 183.607V185.341ZM1039.44 183.141C1042.62 181.633 1045.07 179.486 1046.74 176.695L1045.25 175.805C1043.77 178.272 1041.6 180.197 1038.7 181.574L1039.44 183.141ZM1046.74 176.695C1048.4 173.911 1049.22 170.658 1049.22 166.968H1047.48C1047.48 170.396 1046.73 173.331 1045.25 175.805L1046.74 176.695ZM1048.25 167.829L1052.67 168.358L1052.88 166.636L1048.45 166.107L1048.25 167.829ZM1052.77 166.63H1028.82V168.364H1052.77V166.63ZM1029.69 167.497V150.135H1027.96V167.497H1029.69ZM1028.82 151.002H1071.29V149.268H1028.82V151.002ZM1070.42 150.135V163.169H1072.16V150.135H1070.42ZM1070.42 163.169C1070.42 171.861 1068.58 179.252 1064.92 185.376L1066.41 186.265C1070.25 179.821 1072.16 172.11 1072.16 163.169H1070.42ZM1064.92 185.379C1061.28 191.522 1056.27 196.234 1049.88 199.526L1050.67 201.068C1057.35 197.627 1062.61 192.688 1066.41 186.262L1064.92 185.379ZM1049.88 199.527C1043.51 202.82 1036.16 204.48 1027.81 204.48V206.214C1036.4 206.214 1044.02 204.506 1050.67 201.067L1049.88 199.527ZM1027.81 204.48C1018.55 204.48 1010.44 202.473 1003.48 198.486L1002.62 199.991C1009.88 204.148 1018.29 206.214 1027.81 206.214V204.48ZM1003.48 198.486C996.507 194.499 991.074 188.819 987.172 181.424L985.639 182.233C989.688 189.908 995.349 195.834 1002.62 199.991L1003.48 198.486ZM987.173 181.426C983.275 174.007 981.309 165.174 981.309 154.897H979.575C979.575 165.395 981.584 174.517 985.638 182.232L987.173 181.426ZM981.309 154.897C981.309 146.902 982.498 139.845 984.858 133.71L983.24 133.088C980.79 139.457 979.575 146.732 979.575 154.897H981.309ZM984.858 133.709C987.225 127.525 990.513 122.307 994.718 118.04L993.483 116.823C989.094 121.277 985.682 126.704 983.239 133.089L984.858 133.709ZM994.716 118.043C998.96 113.766 1003.86 110.531 1009.42 108.331L1008.79 106.718C1003 109.007 997.897 112.376 993.485 116.821L994.716 118.043ZM1009.42 108.331C1015.02 106.129 1021.05 105.025 1027.53 105.025V103.291C1020.85 103.291 1014.6 104.431 1008.79 106.718L1009.42 108.331ZM1027.53 105.025C1033.15 105.025 1038.36 105.83 1043.17 107.433L1043.72 105.788C1038.72 104.121 1033.32 103.291 1027.53 103.291V105.025ZM1043.17 107.434C1048.02 109.04 1052.29 111.302 1055.99 114.217L1057.06 112.855C1053.19 109.806 1048.74 107.452 1043.72 105.788L1043.17 107.434ZM1055.99 114.219C1059.72 117.134 1062.74 120.593 1065.06 124.599L1066.56 123.731C1064.13 119.529 1060.96 115.902 1057.06 112.853L1055.99 114.219ZM1065.06 124.599C1067.37 128.596 1068.81 132.987 1069.37 137.78L1071.09 137.578C1070.5 132.56 1068.99 127.941 1066.56 123.731L1065.06 124.599ZM1070.23 136.812H1046.14V138.546H1070.23V136.812ZM1076.18 105.505V104.638H1074.72L1075.42 105.922L1076.18 105.505ZM1102.78 105.505L1103.55 105.114L1103.31 104.638H1102.78V105.505ZM1123.6 146.721L1122.83 147.112L1123.07 147.588H1123.6V146.721ZM1124.47 146.721V147.588H1125L1125.24 147.112L1124.47 146.721ZM1145.29 105.505V104.638H1144.76L1144.52 105.114L1145.29 105.505ZM1171.89 105.505L1172.65 105.922L1173.35 104.638H1171.89V105.505ZM1135.87 171.104L1135.11 170.687L1135 170.882V171.104H1135.87ZM1135.87 204V204.867H1136.73V204H1135.87ZM1112.21 204H1111.34V204.867H1112.21V204ZM1112.21 171.104H1113.07V170.882L1112.97 170.687L1112.21 171.104ZM1076.18 106.372H1102.78V104.638H1076.18V106.372ZM1102.01 105.896L1122.83 147.112L1124.38 146.33L1103.55 105.114L1102.01 105.896ZM1123.6 147.588H1124.47V145.854H1123.6V147.588ZM1125.24 147.112L1146.07 105.896L1144.52 105.114L1123.7 146.33L1125.24 147.112ZM1145.29 106.372H1171.89V104.638H1145.29V106.372ZM1171.13 105.087L1135.11 170.687L1136.63 171.521L1172.65 105.922L1171.13 105.087ZM1135 171.104V204H1136.73V171.104H1135ZM1135.87 203.133H1112.21V204.867H1135.87V203.133ZM1113.07 204V171.104H1111.34V204H1113.07ZM1112.97 170.687L1076.94 105.087L1075.42 105.922L1111.45 171.521L1112.97 170.687ZM1264.21 135.034L1263.34 135.112L1263.41 135.901H1264.21V135.034ZM1259.92 126.81L1259.39 127.489L1259.4 127.496L1259.92 126.81ZM1241.51 125.031L1241.19 124.223L1241.19 124.223L1241.51 125.031ZM1236.89 128.349L1237.58 128.867L1237.59 128.859L1236.89 128.349ZM1235.3 133.11L1236.17 133.148L1236.17 133.137L1236.17 133.126L1235.3 133.11ZM1236.17 137.006L1235.41 137.436L1235.42 137.444L1235.42 137.452L1236.17 137.006ZM1239.05 139.988L1238.56 140.7L1238.57 140.708L1238.58 140.714L1239.05 139.988ZM1243.67 142.2L1243.96 141.384L1243.96 141.384L1243.67 142.2ZM1249.73 143.883L1249.92 143.038L1249.91 143.036L1249.73 143.883ZM1258.19 145.807L1258 146.652L1258.01 146.654L1258.19 145.807ZM1271.08 150.039L1270.71 150.822L1270.71 150.824L1271.08 150.039ZM1280.51 156.339L1279.91 156.964L1279.91 156.968L1280.51 156.339ZM1286.33 164.756L1285.53 165.087L1285.53 165.087L1286.33 164.756ZM1288.35 175.432L1289.22 175.437L1289.21 175.425L1288.35 175.432ZM1283.63 191.448L1282.92 190.951L1282.92 190.951L1283.63 191.448ZM1270.22 201.692L1269.89 200.888L1269.89 200.889L1270.22 201.692ZM1227.65 201.547L1227.98 200.743L1227.98 200.743L1227.65 201.547ZM1208.13 171.2V170.333H1207.25L1207.26 171.211L1208.13 171.2ZM1230.92 171.2L1231.79 171.148L1231.74 170.333H1230.92V171.2ZM1233.47 179.136L1232.77 179.639L1232.77 179.639L1233.47 179.136ZM1239.68 183.945L1239.35 184.746L1239.35 184.747L1239.68 183.945ZM1257.09 184.282L1256.78 183.471L1256.78 183.473L1257.09 184.282ZM1262.33 180.675L1261.65 180.137L1261.65 180.137L1262.33 180.675ZM1264.21 175.384L1265.07 175.398L1265.07 175.384L1265.07 175.369L1264.21 175.384ZM1262.47 170.623L1261.81 171.178L1261.81 171.186L1262.47 170.623ZM1257.28 167.16L1256.94 167.957L1256.94 167.96L1256.95 167.962L1257.28 167.16ZM1248.43 164.419L1248.23 165.263L1248.23 165.264L1248.43 164.419ZM1238.14 162.014L1238.34 161.17L1238.33 161.169L1238.14 162.014ZM1217.99 152.54L1217.41 153.186L1217.41 153.188L1217.99 152.54ZM1210.68 134.745L1211.54 134.749L1211.54 134.741L1210.68 134.745ZM1215.58 118.73L1214.88 118.224L1214.88 118.224L1215.58 118.73ZM1229.29 108.005L1229.64 108.799L1229.64 108.799L1229.29 108.005ZM1269.11 108.054L1268.75 108.84L1268.75 108.843L1269.11 108.054ZM1282.24 118.875L1282.96 118.393L1282.96 118.393L1282.24 118.875ZM1287 135.034V135.901H1287.88L1287.87 135.025L1287 135.034ZM1265.07 134.955C1264.73 131.217 1263.2 128.244 1260.45 126.124L1259.4 127.496C1261.72 129.288 1263.04 131.797 1263.34 135.112L1265.07 134.955ZM1260.46 126.131C1257.75 123.977 1253.96 122.961 1249.2 122.961V124.695C1253.74 124.695 1257.09 125.667 1259.39 127.489L1260.46 126.131ZM1249.2 122.961C1246.05 122.961 1243.37 123.37 1241.19 124.223L1241.82 125.838C1243.74 125.088 1246.19 124.695 1249.2 124.695V122.961ZM1241.19 124.223C1239.02 125.069 1237.33 126.263 1236.19 127.839L1237.59 128.859C1238.5 127.613 1239.88 126.595 1241.82 125.838L1241.19 124.223ZM1236.19 127.831C1235.05 129.362 1234.47 131.127 1234.43 133.095L1236.17 133.126C1236.2 131.503 1236.67 130.093 1237.58 128.867L1236.19 127.831ZM1234.43 133.073C1234.36 134.687 1234.68 136.152 1235.41 137.436L1236.92 136.576C1236.37 135.615 1236.11 134.483 1236.17 133.148L1234.43 133.073ZM1235.42 137.452C1236.17 138.695 1237.22 139.776 1238.56 140.7L1239.55 139.275C1238.38 138.468 1237.51 137.561 1236.91 136.56L1235.42 137.452ZM1238.58 140.714C1239.93 141.593 1241.53 142.358 1243.38 143.016L1243.96 141.384C1242.21 140.76 1240.74 140.05 1239.52 139.261L1238.58 140.714ZM1243.38 143.016C1245.22 143.673 1247.27 144.243 1249.55 144.731L1249.91 143.036C1247.7 142.561 1245.71 142.01 1243.96 141.384L1243.38 143.016ZM1249.54 144.729L1258 146.652L1258.39 144.962L1249.92 143.038L1249.54 144.729ZM1258.01 146.654C1262.83 147.701 1267.06 149.093 1270.71 150.822L1271.45 149.256C1267.66 147.459 1263.3 146.029 1258.38 144.96L1258.01 146.654ZM1270.71 150.824C1274.39 152.554 1277.45 154.604 1279.91 156.964L1281.11 155.715C1278.5 153.202 1275.27 151.051 1271.45 149.255L1270.71 150.824ZM1279.91 156.968C1282.39 159.324 1284.26 162.029 1285.53 165.087L1287.13 164.424C1285.77 161.134 1283.76 158.229 1281.11 155.711L1279.91 156.968ZM1285.53 165.087C1286.79 168.145 1287.45 171.591 1287.48 175.44L1289.21 175.425C1289.18 171.387 1288.49 167.715 1287.13 164.424L1285.53 165.087ZM1287.48 175.428C1287.45 181.498 1285.92 186.659 1282.92 190.951L1284.35 191.944C1287.57 187.323 1289.18 181.807 1289.21 175.437L1287.48 175.428ZM1282.92 190.951C1279.92 195.25 1275.6 198.569 1269.89 200.888L1270.54 202.495C1276.51 200.069 1281.13 196.558 1284.35 191.944L1282.92 190.951ZM1269.89 200.889C1264.22 203.208 1257.33 204.384 1249.2 204.384V206.117C1257.49 206.117 1264.61 204.92 1270.54 202.494L1269.89 200.889ZM1249.2 204.384C1241.04 204.384 1233.98 203.162 1227.98 200.743L1227.33 202.351C1233.58 204.87 1240.88 206.117 1249.2 206.117V204.384ZM1227.98 200.743C1222 198.333 1217.38 194.686 1214.09 189.808L1212.65 190.778C1216.16 195.968 1221.06 199.824 1227.33 202.351L1227.98 200.743ZM1214.09 189.808C1210.81 184.948 1209.09 178.76 1209 171.189L1207.26 171.211C1207.36 179.03 1209.14 185.571 1212.65 190.778L1214.09 189.808ZM1208.13 172.067H1230.92V170.333H1208.13V172.067ZM1230.06 171.253C1230.26 174.553 1231.15 177.363 1232.77 179.639L1234.18 178.633C1232.79 176.676 1231.97 174.196 1231.79 171.148L1230.06 171.253ZM1232.77 179.639C1234.38 181.9 1236.58 183.6 1239.35 184.746L1240.01 183.144C1237.52 182.11 1235.58 180.604 1234.18 178.633L1232.77 179.639ZM1239.35 184.747C1242.13 185.888 1245.33 186.447 1248.91 186.447V184.713C1245.51 184.713 1242.54 184.182 1240.01 183.143L1239.35 184.747ZM1248.91 186.447C1252.19 186.447 1255.03 186.005 1257.4 185.091L1256.78 183.473C1254.66 184.29 1252.04 184.713 1248.91 184.713V186.447ZM1257.4 185.092C1259.78 184.184 1261.67 182.901 1263.01 181.213L1261.65 180.137C1260.55 181.527 1258.94 182.648 1256.78 183.471L1257.4 185.092ZM1263.01 181.213C1264.35 179.522 1265.04 177.574 1265.07 175.398L1263.34 175.37C1263.31 177.17 1262.75 178.749 1261.65 180.137L1263.01 181.213ZM1265.07 175.369C1265.04 173.325 1264.4 171.54 1263.13 170.06L1261.81 171.186C1262.8 172.335 1263.31 173.724 1263.34 175.399L1265.07 175.369ZM1263.14 170.068C1261.9 168.576 1260.03 167.352 1257.61 166.359L1256.95 167.962C1259.21 168.893 1260.81 169.977 1261.81 171.178L1263.14 170.068ZM1257.62 166.364C1255.25 165.343 1252.25 164.415 1248.63 163.575L1248.23 165.264C1251.8 166.09 1254.69 166.99 1256.94 167.957L1257.62 166.364ZM1248.63 163.575L1238.34 161.17L1237.94 162.859L1248.23 165.263L1248.63 163.575ZM1238.33 161.169C1229.9 159.236 1223.33 156.129 1218.56 151.892L1217.41 153.188C1222.46 157.672 1229.32 160.881 1237.94 162.859L1238.33 161.169ZM1218.57 151.894C1213.87 147.69 1211.51 142.009 1211.54 134.749L1209.81 134.742C1209.78 142.423 1212.29 148.605 1217.41 153.186L1218.57 151.894ZM1211.54 134.741C1211.51 128.817 1213.1 123.661 1216.29 119.237L1214.88 118.224C1211.46 122.969 1209.78 128.49 1209.81 134.75L1211.54 134.741ZM1216.29 119.237C1219.49 114.793 1223.93 111.31 1229.64 108.799L1228.94 107.212C1222.98 109.831 1218.28 113.498 1214.88 118.224L1216.29 119.237ZM1229.64 108.799C1235.35 106.29 1241.88 105.025 1249.25 105.025V103.291C1241.68 103.291 1234.9 104.591 1228.94 107.212L1229.64 108.799ZM1249.25 105.025C1256.78 105.025 1263.27 106.307 1268.75 108.84L1269.47 107.267C1263.73 104.606 1256.98 103.291 1249.25 103.291V105.025ZM1268.75 108.843C1274.26 111.348 1278.51 114.856 1281.52 119.357L1282.96 118.393C1279.75 113.595 1275.24 109.889 1269.47 107.264L1268.75 108.843ZM1281.52 119.357C1284.53 123.852 1286.07 129.071 1286.13 135.043L1287.87 135.025C1287.8 128.749 1286.17 123.195 1282.96 118.393L1281.52 119.357ZM1287 134.167H1264.21V135.901H1287V134.167ZM1295.47 105.505V104.638H1294L1294.71 105.922L1295.47 105.505ZM1322.06 105.505L1322.84 105.114L1322.59 104.638H1322.06V105.505ZM1342.89 146.721L1342.11 147.112L1342.35 147.588H1342.89V146.721ZM1343.75 146.721V147.588H1344.29L1344.53 147.112L1343.75 146.721ZM1364.58 105.505V104.638H1364.04L1363.8 105.114L1364.58 105.505ZM1391.17 105.505L1391.93 105.922L1392.64 104.638H1391.17V105.505ZM1355.15 171.104L1354.39 170.687L1354.28 170.882V171.104H1355.15ZM1355.15 204V204.867H1356.02V204H1355.15ZM1331.49 204H1330.62V204.867H1331.49V204ZM1331.49 171.104H1332.35V170.882L1332.25 170.687L1331.49 171.104ZM1295.47 106.372H1322.06V104.638H1295.47V106.372ZM1321.29 105.896L1342.11 147.112L1343.66 146.33L1322.84 105.114L1321.29 105.896ZM1342.89 147.588H1343.75V145.854H1342.89V147.588ZM1344.53 147.112L1365.35 105.896L1363.8 105.114L1342.98 146.33L1344.53 147.112ZM1364.58 106.372H1391.17V104.638H1364.58V106.372ZM1390.41 105.087L1354.39 170.687L1355.91 171.521L1391.93 105.922L1390.41 105.087ZM1354.28 171.104V204H1356.02V171.104H1354.28ZM1355.15 203.133H1331.49V204.867H1355.15V203.133ZM1332.35 204V171.104H1330.62V204H1332.35ZM1332.25 170.687L1296.23 105.087L1294.71 105.922L1330.73 171.521L1332.25 170.687ZM1454.39 135.034L1453.53 135.112L1453.6 135.901H1454.39V135.034ZM1450.11 126.81L1449.57 127.489L1449.58 127.496L1450.11 126.81ZM1431.69 125.031L1431.38 124.223L1431.38 124.223L1431.69 125.031ZM1427.07 128.349L1427.77 128.867L1427.77 128.859L1427.07 128.349ZM1425.49 133.11L1426.35 133.148L1426.35 133.137L1426.35 133.126L1425.49 133.11ZM1426.35 137.006L1425.6 137.436L1425.6 137.444L1425.61 137.452L1426.35 137.006ZM1429.24 139.988L1428.74 140.7L1428.75 140.708L1428.77 140.714L1429.24 139.988ZM1433.85 142.2L1434.15 141.384L1434.15 141.384L1433.85 142.2ZM1439.91 143.883L1440.11 143.038L1440.1 143.036L1439.91 143.883ZM1448.38 145.807L1448.19 146.652L1448.2 146.654L1448.38 145.807ZM1461.27 150.039L1460.9 150.822L1460.9 150.824L1461.27 150.039ZM1470.69 156.339L1470.09 156.964L1470.1 156.968L1470.69 156.339ZM1476.51 164.756L1475.71 165.087L1475.71 165.087L1476.51 164.756ZM1478.53 175.432L1479.4 175.437L1479.4 175.425L1478.53 175.432ZM1473.82 191.448L1473.11 190.951L1473.11 190.951L1473.82 191.448ZM1460.4 201.692L1460.08 200.888L1460.07 200.889L1460.4 201.692ZM1417.84 201.547L1418.16 200.743L1418.16 200.743L1417.84 201.547ZM1398.31 171.2V170.333H1397.44L1397.45 171.211L1398.31 171.2ZM1421.11 171.2L1421.98 171.148L1421.93 170.333H1421.11V171.2ZM1423.66 179.136L1422.95 179.639L1422.95 179.639L1423.66 179.136ZM1429.86 183.945L1429.53 184.746L1429.53 184.747L1429.86 183.945ZM1447.27 184.282L1446.96 183.471L1446.96 183.473L1447.27 184.282ZM1452.52 180.675L1451.84 180.137L1451.84 180.137L1452.52 180.675ZM1454.39 175.384L1455.26 175.398L1455.26 175.384L1455.26 175.369L1454.39 175.384ZM1452.66 170.623L1451.99 171.178L1452 171.186L1452.66 170.623ZM1447.47 167.16L1447.12 167.957L1447.13 167.96L1447.14 167.962L1447.47 167.16ZM1438.62 164.419L1438.42 165.263L1438.42 165.264L1438.62 164.419ZM1428.32 162.014L1428.52 161.17L1428.52 161.169L1428.32 162.014ZM1408.17 152.54L1407.59 153.186L1407.6 153.188L1408.17 152.54ZM1400.86 134.745L1401.73 134.749L1401.73 134.741L1400.86 134.745ZM1405.77 118.73L1405.06 118.224L1405.06 118.224L1405.77 118.73ZM1419.47 108.005L1419.82 108.799L1419.82 108.799L1419.47 108.005ZM1459.3 108.054L1458.93 108.84L1458.94 108.843L1459.3 108.054ZM1472.43 118.875L1473.15 118.393L1473.15 118.393L1472.43 118.875ZM1477.19 135.034V135.901H1478.06L1478.05 135.025L1477.19 135.034ZM1455.25 134.955C1454.91 131.217 1453.39 128.244 1450.64 126.124L1449.58 127.496C1451.9 129.288 1453.23 131.797 1453.53 135.112L1455.25 134.955ZM1450.65 126.131C1447.94 123.977 1444.14 122.961 1439.39 122.961V124.695C1443.93 124.695 1447.28 125.667 1449.57 127.489L1450.65 126.131ZM1439.39 122.961C1436.24 122.961 1433.56 123.37 1431.38 124.223L1432.01 125.838C1433.93 125.088 1436.38 124.695 1439.39 124.695V122.961ZM1431.38 124.223C1429.21 125.069 1427.52 126.263 1426.37 127.839L1427.77 128.859C1428.68 127.613 1430.07 126.595 1432.01 125.838L1431.38 124.223ZM1426.38 127.831C1425.24 129.362 1424.65 131.127 1424.62 133.095L1426.35 133.126C1426.38 131.503 1426.86 130.093 1427.77 128.867L1426.38 127.831ZM1424.62 133.073C1424.55 134.687 1424.87 136.152 1425.6 137.436L1427.1 136.576C1426.56 135.615 1426.29 134.483 1426.35 133.148L1424.62 133.073ZM1425.61 137.452C1426.36 138.695 1427.41 139.776 1428.74 140.7L1429.73 139.275C1428.57 138.468 1427.7 137.561 1427.1 136.56L1425.61 137.452ZM1428.77 140.714C1430.12 141.593 1431.72 142.358 1433.56 143.016L1434.15 141.384C1432.4 140.76 1430.92 140.05 1429.71 139.261L1428.77 140.714ZM1433.56 143.016C1435.4 143.673 1437.46 144.243 1439.73 144.731L1440.1 143.036C1437.88 142.561 1435.9 142.01 1434.15 141.384L1433.56 143.016ZM1439.72 144.729L1448.19 146.652L1448.57 144.962L1440.11 143.038L1439.72 144.729ZM1448.2 146.654C1453.02 147.701 1457.25 149.093 1460.9 150.822L1461.64 149.256C1457.85 147.459 1453.49 146.029 1448.56 144.96L1448.2 146.654ZM1460.9 150.824C1464.58 152.554 1467.64 154.604 1470.09 156.964L1471.3 155.715C1468.68 153.202 1465.46 151.051 1461.64 149.255L1460.9 150.824ZM1470.1 156.968C1472.58 159.324 1474.45 162.029 1475.71 165.087L1477.31 164.424C1475.95 161.134 1473.94 158.229 1471.29 155.711L1470.1 156.968ZM1475.71 165.087C1476.98 168.145 1477.64 171.591 1477.67 175.44L1479.4 175.425C1479.37 171.387 1478.68 167.715 1477.31 164.424L1475.71 165.087ZM1477.67 175.428C1477.64 181.498 1476.1 186.659 1473.11 190.951L1474.53 191.944C1477.76 187.323 1479.37 181.807 1479.4 175.437L1477.67 175.428ZM1473.11 190.951C1470.11 195.25 1465.78 198.569 1460.08 200.888L1460.73 202.495C1466.69 200.069 1471.31 196.558 1474.53 191.944L1473.11 190.951ZM1460.07 200.889C1454.4 203.208 1447.51 204.384 1439.39 204.384V206.117C1447.67 206.117 1454.8 204.92 1460.73 202.494L1460.07 200.889ZM1439.39 204.384C1431.23 204.384 1424.16 203.162 1418.16 200.743L1417.52 202.351C1423.76 204.87 1431.06 206.117 1439.39 206.117V204.384ZM1418.16 200.743C1412.19 198.333 1407.57 194.686 1404.27 189.808L1402.84 190.778C1406.34 195.968 1411.25 199.824 1417.52 202.351L1418.16 200.743ZM1404.27 189.808C1400.99 184.948 1399.28 178.76 1399.18 171.189L1397.45 171.211C1397.54 179.03 1399.32 185.571 1402.84 190.778L1404.27 189.808ZM1398.31 172.067H1421.11V170.333H1398.31V172.067ZM1420.24 171.253C1420.44 174.553 1421.33 177.363 1422.95 179.639L1424.37 178.633C1422.97 176.676 1422.16 174.196 1421.98 171.148L1420.24 171.253ZM1422.95 179.639C1424.56 181.9 1426.77 183.6 1429.53 184.746L1430.2 183.144C1427.7 182.11 1425.77 180.604 1424.37 178.633L1422.95 179.639ZM1429.53 184.747C1432.32 185.888 1435.51 186.447 1439.1 186.447V184.713C1435.69 184.713 1432.73 184.182 1430.19 183.143L1429.53 184.747ZM1439.1 186.447C1442.38 186.447 1445.21 186.005 1447.58 185.091L1446.96 183.473C1444.84 184.29 1442.23 184.713 1439.1 184.713V186.447ZM1447.58 185.092C1449.97 184.184 1451.86 182.901 1453.19 181.213L1451.84 180.137C1450.73 181.527 1449.13 182.648 1446.96 183.471L1447.58 185.092ZM1453.19 181.213C1454.53 179.522 1455.22 177.574 1455.26 175.398L1453.52 175.37C1453.49 177.17 1452.93 178.749 1451.84 180.137L1453.19 181.213ZM1455.26 175.369C1455.22 173.325 1454.58 171.54 1453.32 170.06L1452 171.186C1452.98 172.335 1453.5 173.724 1453.52 175.399L1455.26 175.369ZM1453.33 170.068C1452.08 168.576 1450.21 167.352 1447.79 166.359L1447.14 167.962C1449.4 168.893 1450.99 169.977 1451.99 171.178L1453.33 170.068ZM1447.81 166.364C1445.44 165.343 1442.43 164.415 1438.81 163.575L1438.42 165.264C1441.98 166.09 1444.88 166.99 1447.12 167.957L1447.81 166.364ZM1438.81 163.575L1428.52 161.17L1428.13 162.859L1438.42 165.263L1438.81 163.575ZM1428.52 161.169C1420.09 159.236 1413.52 156.129 1408.75 151.892L1407.6 153.188C1412.64 157.672 1419.51 160.881 1428.13 162.859L1428.52 161.169ZM1408.75 151.894C1404.06 147.69 1401.7 142.009 1401.73 134.749L1400 134.742C1399.96 142.423 1402.48 148.605 1407.59 153.186L1408.75 151.894ZM1401.73 134.741C1401.7 128.817 1403.28 123.661 1406.47 119.237L1405.06 118.224C1401.65 122.969 1399.96 128.49 1400 134.75L1401.73 134.741ZM1406.47 119.237C1409.67 114.793 1414.11 111.31 1419.82 108.799L1419.13 107.212C1413.17 109.831 1408.47 113.498 1405.06 118.224L1406.47 119.237ZM1419.82 108.799C1425.53 106.29 1432.06 105.025 1439.43 105.025V103.291C1431.86 103.291 1425.09 104.591 1419.13 107.212L1419.82 108.799ZM1439.43 105.025C1446.97 105.025 1453.46 106.307 1458.93 108.84L1459.66 107.267C1453.91 104.606 1447.16 103.291 1439.43 103.291V105.025ZM1458.94 108.843C1464.45 111.348 1468.69 114.856 1471.71 119.357L1473.15 118.393C1469.94 113.595 1465.43 109.889 1459.65 107.264L1458.94 108.843ZM1471.71 119.357C1474.71 123.852 1476.26 129.071 1476.32 135.043L1478.05 135.025C1477.99 128.749 1476.36 123.195 1473.15 118.393L1471.71 119.357ZM1477.19 134.167H1454.39V135.901H1477.19V134.167ZM1487.33 124.838H1486.47V125.705H1487.33V124.838ZM1487.33 105.505V104.638H1486.47V105.505H1487.33ZM1570.58 105.505H1571.45V104.638H1570.58V105.505ZM1570.58 124.838V125.705H1571.45V124.838H1570.58ZM1540.72 124.838V123.971H1539.85V124.838H1540.72ZM1540.72 204V204.867H1541.59V204H1540.72ZM1517.25 204H1516.38V204.867H1517.25V204ZM1517.25 124.838H1518.12V123.971H1517.25V124.838ZM1488.2 124.838V105.505H1486.47V124.838H1488.2ZM1487.33 106.372H1570.58V104.638H1487.33V106.372ZM1569.72 105.505V124.838H1571.45V105.505H1569.72ZM1570.58 123.971H1540.72V125.705H1570.58V123.971ZM1539.85 124.838V204H1541.59V124.838H1539.85ZM1540.72 203.133H1517.25V204.867H1540.72V203.133ZM1518.12 204V124.838H1516.38V204H1518.12ZM1517.25 123.971H1487.33V125.705H1517.25V123.971ZM1582.21 204H1581.34V204.867H1582.21V204ZM1582.21 105.505V104.638H1581.34V105.505H1582.21ZM1650.89 105.505H1651.76V104.638H1650.89V105.505ZM1650.89 124.838V125.705H1651.76V124.838H1650.89ZM1606.02 124.838V123.971H1605.15V124.838H1606.02ZM1606.02 145.037H1605.15V145.904H1606.02V145.037ZM1647.38 145.037H1648.24V144.171H1647.38V145.037ZM1647.38 164.419V165.286H1648.24V164.419H1647.38ZM1606.02 164.419V163.552H1605.15V164.419H1606.02ZM1606.02 184.666H1605.15V185.533H1606.02V184.666ZM1650.89 184.666H1651.76V183.8H1650.89V184.666ZM1650.89 204V204.867H1651.76V204H1650.89ZM1583.08 204V105.505H1581.34V204H1583.08ZM1582.21 106.372H1650.89V104.638H1582.21V106.372ZM1650.02 105.505V124.838H1651.76V105.505H1650.02ZM1650.89 123.971H1606.02V125.705H1650.89V123.971ZM1605.15 124.838V145.037H1606.88V124.838H1605.15ZM1606.02 145.904H1647.38V144.171H1606.02V145.904ZM1646.51 145.037V164.419H1648.24V145.037H1646.51ZM1647.38 163.552H1606.02V165.286H1647.38V163.552ZM1605.15 164.419V184.666H1606.88V164.419H1605.15ZM1606.02 185.533H1650.89V183.8H1606.02V185.533ZM1650.02 184.666V204H1651.76V184.666H1650.02ZM1650.89 203.133H1582.21V204.867H1650.89V203.133ZM1665.8 105.505V104.638H1664.93V105.505H1665.8ZM1695.28 105.505L1696.08 105.176L1695.86 104.638H1695.28V105.505ZM1720.29 166.487L1719.49 166.816L1719.71 167.354H1720.29V166.487ZM1721.44 166.487V167.354H1722.02L1722.24 166.816L1721.44 166.487ZM1746.45 105.505V104.638H1745.87L1745.65 105.176L1746.45 105.505ZM1775.93 105.505H1776.8V104.638H1775.93V105.505ZM1775.93 204V204.867H1776.8V204H1775.93ZM1752.75 204H1751.88V204.867H1752.75V204ZM1752.75 143.498H1753.62V142.632H1752.75V143.498ZM1751.93 143.498V142.632H1751.34L1751.13 143.18L1751.93 143.498ZM1728.27 203.375V204.242H1728.86L1729.08 203.693L1728.27 203.375ZM1713.46 203.375L1712.65 203.692L1712.87 204.242H1713.46V203.375ZM1689.8 143.162L1690.6 142.845L1690.39 142.295H1689.8V143.162ZM1688.98 143.162V142.295H1688.11V143.162H1688.98ZM1688.98 204V204.867H1689.85V204H1688.98ZM1665.8 204H1664.93V204.867H1665.8V204ZM1665.8 106.372H1695.28V104.638H1665.8V106.372ZM1694.48 105.834L1719.49 166.816L1721.09 166.158L1696.08 105.176L1694.48 105.834ZM1720.29 167.354H1721.44V165.62H1720.29V167.354ZM1722.24 166.816L1747.25 105.834L1745.65 105.176L1720.64 166.158L1722.24 166.816ZM1746.45 106.372H1775.93V104.638H1746.45V106.372ZM1775.06 105.505V204H1776.8V105.505H1775.06ZM1775.93 203.133H1752.75V204.867H1775.93V203.133ZM1753.62 204V143.498H1751.88V204H1753.62ZM1752.75 142.632H1751.93V144.365H1752.75V142.632ZM1751.13 143.18L1727.46 203.056L1729.08 203.693L1752.74 143.817L1751.13 143.18ZM1728.27 202.508H1713.46V204.242H1728.27V202.508ZM1714.26 203.058L1690.6 142.845L1688.99 143.479L1712.65 203.692L1714.26 203.058ZM1689.8 142.295H1688.98V144.029H1689.8V142.295ZM1688.11 143.162V204H1689.85V143.162H1688.11ZM1688.98 203.133H1665.8V204.867H1688.98V203.133ZM1666.66 204V105.505H1664.93V204H1666.66Z" fill="white"/>
</svg>
