<svg width="72" height="72" viewBox="0 0 72 72" fill="none" xmlns="http://www.w3.org/2000/svg">
<circle cx="36" cy="36" r="36" fill="#520CF3"/>
<path d="M19 53H53M36 25.8V34.3M31.75 30.05H40.25M44.5 19H27.5C22.4 19 20.7 22.043 20.7 25.8V53H51.3V25.8C51.3 22.043 49.6 19 44.5 19ZM39.502 41.1H32.481C31.614 41.1 30.883 41.814 30.883 42.698V53H41.083V42.698C41.0866 42.4886 41.0483 42.2806 40.9704 42.0861C40.8924 41.8917 40.7764 41.7149 40.6291 41.566C40.4818 41.4171 40.3062 41.2992 40.1126 41.2191C39.9191 41.1391 39.7114 41.0986 39.502 41.1Z" stroke="white" stroke-width="2" stroke-miterlimit="10" stroke-linecap="round" stroke-linejoin="round"/>
</svg>
