<svg width="72" height="72" viewBox="0 0 72 72" fill="none" xmlns="http://www.w3.org/2000/svg">
<circle cx="36" cy="36" r="36" fill="#1F3B48"/>
<path d="M31.3403 15.0236C33.6719 14.975 35.6538 15.5683 37.2884 16.6886C38.9264 17.8112 40.244 19.4827 41.2088 21.6321C41.7825 22.9101 41.9039 24.661 41.8222 26.3461C41.7413 28.015 41.4659 29.5452 41.3015 30.3378C41.284 30.4223 41.2072 30.492 41.1004 30.492H37.6451V31.551H41.1004C41.6886 31.551 42.2149 31.1488 42.3385 30.5528C42.5086 29.732 42.7954 28.1425 42.8799 26.3973C42.9637 24.6684 42.8538 22.711 42.1749 21.1985C41.1469 18.9082 39.7159 17.0685 37.8871 15.8151C36.0549 14.5594 33.852 13.9121 31.3182 13.9649C28.8626 14.0161 26.7616 14.6981 25.0202 15.9458C23.2822 17.1911 21.9313 18.9789 20.9372 21.1989C20.2598 22.7116 20.1501 24.6687 20.2337 26.3974C20.3181 28.1423 20.6042 29.7314 20.774 30.5522C20.8974 31.1485 21.4238 31.551 22.0122 31.551H25.2781V30.492H22.0122C21.9053 30.492 21.8285 30.4223 21.811 30.3377C21.647 29.545 21.3721 28.0151 21.2914 26.3463C21.2099 24.6614 21.3311 22.9104 21.9037 21.6317C22.8386 19.5438 24.0826 17.9203 25.637 16.8066C27.1879 15.6954 29.0768 15.0708 31.3403 15.0236Z" fill="white"/>
<path d="M20.2102 46.3658V54.4441C20.2106 54.6815 20.305 54.9091 20.4729 55.077C20.6408 55.2449 20.8684 55.3393 21.1058 55.3397H32.3126C32.6468 55.3397 32.9177 55.6106 32.9177 55.9448C32.9177 56.279 32.6468 56.5499 32.3126 56.5499H21.1058C20.5475 56.5492 20.0123 56.3272 19.6175 55.9324C19.2227 55.5376 19.0006 55.0024 19 54.4441V46.3658C19.003 43.6111 20.0987 40.9702 22.0465 39.0224C23.9943 37.0746 26.6352 35.979 29.3899 35.9759H34.0251C35.4773 35.9767 36.9132 36.2819 38.2402 36.8718C39.389 37.3825 40.4341 38.0968 41.3257 38.9785C41.5573 39.2076 41.5432 39.5803 41.3087 39.8064C41.0627 40.0435 40.6705 40.0277 40.4255 39.7897C39.6527 39.0388 38.7529 38.4282 37.7662 37.9873C36.5891 37.4612 35.3145 37.1882 34.0251 37.1862H29.3899C26.9562 37.189 24.623 38.1571 22.9021 39.878C21.1812 41.5989 20.2131 43.9321 20.2102 46.3658Z" fill="white"/>
<path fill-rule="evenodd" clip-rule="evenodd" d="M25.0512 26.294V23.8736C25.0529 22.2693 25.691 20.7311 26.8255 19.5967C27.9599 18.4623 29.498 17.8242 31.1023 17.8224H32.3126C33.9169 17.8242 35.455 18.4623 36.5894 19.5967C37.7239 20.7311 38.362 22.2693 38.3637 23.8736V26.294C38.362 27.8984 37.7239 29.4365 36.5894 30.5709C35.455 31.7054 33.9169 32.3435 32.3126 32.3452H31.1023C29.498 32.3435 27.9599 31.7054 26.8255 30.5709C25.691 29.4365 25.0529 27.8984 25.0512 26.294ZM32.3126 19.0326H31.1023C29.8189 19.0341 28.5884 19.5446 27.6809 20.4521C26.7733 21.3597 26.2628 22.5901 26.2614 23.8736V26.294C26.2628 27.5775 26.7733 28.808 27.6809 29.7155C28.5884 30.6231 29.8189 31.1335 31.1023 31.135H32.3126C33.596 31.1335 34.8265 30.6231 35.734 29.7155C36.6416 28.808 37.1521 27.5775 37.1535 26.294V23.8736C37.1521 22.5901 36.6416 21.3597 35.734 20.4521C34.8265 19.5446 33.596 19.0341 32.3126 19.0326Z" fill="white"/>
<path fill-rule="evenodd" clip-rule="evenodd" d="M49.5091 42.2911C49.8045 41.9957 50.2834 41.9957 50.5788 42.2911L52.1607 43.873C52.3527 44.065 52.664 44.065 52.856 43.873C53.048 43.681 53.048 43.3697 52.856 43.1777L51.2741 41.5958C50.9787 41.3004 50.9787 40.8215 51.2741 40.5261L52.6292 39.171C52.7711 39.0292 52.8533 38.8355 52.8145 38.6387C52.7847 38.4879 52.7373 38.3351 52.6746 38.2721C52.612 38.2092 52.4591 38.1615 52.308 38.1313C52.11 38.0918 51.9148 38.1742 51.772 38.3169L50.4185 39.6705C50.1231 39.9658 49.6442 39.9658 49.3488 39.6705L47.7271 38.0487C47.5351 37.8567 47.2238 37.8567 47.0317 38.0487C46.8397 38.2407 46.8397 38.552 47.0317 38.744L48.6535 40.3658C48.9489 40.6612 48.9489 41.1401 48.6535 41.4355L46.4571 43.6318C46.1783 43.9107 45.7341 43.9249 45.4116 43.6978C44.0106 42.7109 42.3099 42.2229 40.5856 42.3262C38.6279 42.4435 36.7915 43.3137 35.4611 44.7547C34.1307 46.1957 33.4096 48.0956 33.4487 50.0564C33.4878 52.0172 34.2841 53.8869 35.6709 55.2737C37.0577 56.6604 38.9273 57.4568 40.8882 57.4959C42.849 57.535 44.7489 56.8138 46.1899 55.4835C47.6308 54.1531 48.5011 52.3167 48.6184 50.359C48.7217 48.6346 48.2337 46.934 47.2468 45.5329C47.0197 45.2105 47.0339 44.7663 47.3128 44.4875L49.5091 42.2911ZM47.4247 49.8851C47.4248 51.1435 47.0517 52.3737 46.3527 53.42C45.6537 54.4664 44.66 55.2819 43.4975 55.7635C42.3349 56.2451 41.0556 56.3712 39.8214 56.1257C38.5872 55.8803 37.4535 55.2743 36.5637 54.3845C35.6739 53.4947 35.068 52.361 34.8225 51.1268C34.577 49.8926 34.7031 48.6133 35.1847 47.4508C35.6663 46.2882 36.4818 45.2946 37.5282 44.5955C38.5746 43.8965 39.8047 43.5234 41.0631 43.5235C42.7496 43.5256 44.3665 44.1965 45.5591 45.3891C46.7517 46.5817 47.4226 48.1986 47.4247 49.8851Z" fill="white"/>
<path d="M31.3403 15.0236C33.6719 14.975 35.6538 15.5683 37.2884 16.6886C38.9264 17.8112 40.244 19.4827 41.2088 21.6321C41.7825 22.9101 41.9039 24.661 41.8222 26.3461C41.7413 28.015 41.4659 29.5452 41.3015 30.3378C41.284 30.4223 41.2072 30.492 41.1004 30.492H37.6451V31.551H41.1004C41.6886 31.551 42.2149 31.1488 42.3385 30.5528C42.5086 29.732 42.7954 28.1425 42.8799 26.3973C42.9637 24.6684 42.8538 22.711 42.1749 21.1985C41.1469 18.9082 39.7159 17.0685 37.8871 15.8151C36.0549 14.5594 33.852 13.9121 31.3182 13.9649C28.8626 14.0161 26.7616 14.6981 25.0202 15.9458C23.2822 17.1911 21.9313 18.9789 20.9372 21.1989C20.2598 22.7116 20.1501 24.6687 20.2337 26.3974C20.3181 28.1423 20.6042 29.7314 20.774 30.5522C20.8974 31.1485 21.4238 31.551 22.0122 31.551H25.2781V30.492H22.0122C21.9053 30.492 21.8285 30.4223 21.811 30.3377C21.647 29.545 21.3721 28.0151 21.2914 26.3463C21.2099 24.6614 21.3311 22.9104 21.9037 21.6317C22.8386 19.5438 24.0826 17.9203 25.637 16.8066C27.1879 15.6954 29.0768 15.0708 31.3403 15.0236Z" stroke="white" stroke-width="0.5"/>
<path d="M20.2102 46.3658V54.4441C20.2106 54.6815 20.305 54.9091 20.4729 55.077C20.6408 55.2449 20.8684 55.3393 21.1058 55.3397H32.3126C32.6468 55.3397 32.9177 55.6106 32.9177 55.9448C32.9177 56.279 32.6468 56.5499 32.3126 56.5499H21.1058C20.5475 56.5492 20.0123 56.3272 19.6175 55.9324C19.2227 55.5376 19.0006 55.0024 19 54.4441V46.3658C19.003 43.6111 20.0987 40.9702 22.0465 39.0224C23.9943 37.0746 26.6352 35.979 29.3899 35.9759H34.0251C35.4773 35.9767 36.9132 36.2819 38.2402 36.8718C39.389 37.3825 40.4341 38.0968 41.3257 38.9785C41.5573 39.2076 41.5432 39.5803 41.3087 39.8064C41.0627 40.0435 40.6705 40.0277 40.4255 39.7897C39.6527 39.0388 38.7529 38.4282 37.7662 37.9873C36.5891 37.4612 35.3145 37.1882 34.0251 37.1862H29.3899C26.9562 37.189 24.623 38.1571 22.9021 39.878C21.1812 41.5989 20.2131 43.9321 20.2102 46.3658Z" stroke="white" stroke-width="0.5"/>
<path fill-rule="evenodd" clip-rule="evenodd" d="M25.0512 26.294V23.8736C25.0529 22.2693 25.691 20.7311 26.8255 19.5967C27.9599 18.4623 29.498 17.8242 31.1023 17.8224H32.3126C33.9169 17.8242 35.455 18.4623 36.5894 19.5967C37.7239 20.7311 38.362 22.2693 38.3637 23.8736V26.294C38.362 27.8984 37.7239 29.4365 36.5894 30.5709C35.455 31.7054 33.9169 32.3435 32.3126 32.3452H31.1023C29.498 32.3435 27.9599 31.7054 26.8255 30.5709C25.691 29.4365 25.0529 27.8984 25.0512 26.294ZM32.3126 19.0326H31.1023C29.8189 19.0341 28.5884 19.5446 27.6809 20.4521C26.7733 21.3597 26.2628 22.5901 26.2614 23.8736V26.294C26.2628 27.5775 26.7733 28.808 27.6809 29.7155C28.5884 30.6231 29.8189 31.1335 31.1023 31.135H32.3126C33.596 31.1335 34.8265 30.6231 35.734 29.7155C36.6416 28.808 37.1521 27.5775 37.1535 26.294V23.8736C37.1521 22.5901 36.6416 21.3597 35.734 20.4521C34.8265 19.5446 33.596 19.0341 32.3126 19.0326Z" stroke="white" stroke-width="0.5"/>
<path fill-rule="evenodd" clip-rule="evenodd" d="M49.5091 42.2911C49.8045 41.9957 50.2834 41.9957 50.5788 42.2911L52.1607 43.873C52.3527 44.065 52.664 44.065 52.856 43.873C53.048 43.681 53.048 43.3697 52.856 43.1777L51.2741 41.5958C50.9787 41.3004 50.9787 40.8215 51.2741 40.5261L52.6292 39.171C52.7711 39.0292 52.8533 38.8355 52.8145 38.6387C52.7847 38.4879 52.7373 38.3351 52.6746 38.2721C52.612 38.2092 52.4591 38.1615 52.308 38.1313C52.11 38.0918 51.9148 38.1742 51.772 38.3169L50.4185 39.6705C50.1231 39.9658 49.6442 39.9658 49.3488 39.6705L47.7271 38.0487C47.5351 37.8567 47.2238 37.8567 47.0317 38.0487C46.8397 38.2407 46.8397 38.552 47.0317 38.744L48.6535 40.3658C48.9489 40.6612 48.9489 41.1401 48.6535 41.4355L46.4571 43.6318C46.1783 43.9107 45.7341 43.9249 45.4116 43.6978C44.0106 42.7109 42.3099 42.2229 40.5856 42.3262C38.6279 42.4435 36.7915 43.3137 35.4611 44.7547C34.1307 46.1957 33.4096 48.0956 33.4487 50.0564C33.4878 52.0172 34.2841 53.8869 35.6709 55.2737C37.0577 56.6604 38.9273 57.4568 40.8882 57.4959C42.849 57.535 44.7489 56.8138 46.1899 55.4835C47.6308 54.1531 48.5011 52.3167 48.6184 50.359C48.7217 48.6346 48.2337 46.934 47.2468 45.5329C47.0197 45.2105 47.0339 44.7663 47.3128 44.4875L49.5091 42.2911ZM47.4247 49.8851C47.4248 51.1435 47.0517 52.3737 46.3527 53.42C45.6537 54.4664 44.66 55.2819 43.4975 55.7635C42.3349 56.2451 41.0556 56.3712 39.8214 56.1257C38.5872 55.8803 37.4535 55.2743 36.5637 54.3845C35.6739 53.4947 35.068 52.361 34.8225 51.1268C34.577 49.8926 34.7031 48.6133 35.1847 47.4508C35.6663 46.2882 36.4818 45.2946 37.5282 44.5955C38.5746 43.8965 39.8047 43.5234 41.0631 43.5235C42.7496 43.5256 44.3665 44.1965 45.5591 45.3891C46.7517 46.5817 47.4226 48.1986 47.4247 49.8851Z" stroke="white" stroke-width="0.5"/>
</svg>
