<svg width="72" height="72" viewBox="0 0 72 72" fill="none" xmlns="http://www.w3.org/2000/svg">
<circle cx="36" cy="36" r="36" fill="#1F3B48"/>
<path d="M34.9302 31.9971H34.9303C36.505 31.9979 38.062 32.3289 39.5008 32.9685C40.7465 33.5223 41.8797 34.2967 42.8464 35.2528C43.1983 35.6009 43.1691 36.1577 42.8261 36.4883C42.4605 36.8407 41.8906 36.8087 41.5419 36.4699C40.7436 35.6942 39.8141 35.0634 38.7948 34.6079C37.5786 34.0644 36.2618 33.7824 34.9298 33.7802H30.0161C27.5019 33.7832 25.0917 34.7833 23.3139 36.561C21.5362 38.3388 20.5361 40.749 20.5331 43.2632L20.5331 51.8276M34.9302 31.9971L20.2831 51.8278M34.9302 31.9971H30.0158H30.0155C27.0287 32.0004 24.1652 33.1884 22.0532 35.3003C19.9413 37.4123 18.7533 40.2758 18.75 43.2626V43.2629L18.75 51.8278L18.75 51.8281C18.7508 52.4862 19.0125 53.1172 19.4779 53.5826C19.9433 54.0479 20.5742 54.3097 21.2324 54.3105H21.2327H33.1145C33.6069 54.3105 34.0061 53.9113 34.0061 53.4189C34.0061 52.9265 33.6069 52.5273 33.1145 52.5273H21.233M34.9302 31.9971L21.2327 52.7773M20.5331 51.8276V51.8278H20.2831M20.5331 51.8276C20.5331 51.8276 20.5331 51.8275 20.5331 51.8275L20.2831 51.8278M20.5331 51.8276C20.5334 52.0131 20.6072 52.1909 20.7384 52.3221C20.8696 52.4533 21.0475 52.5271 21.233 52.5273M20.2831 51.8278C20.2835 52.0795 20.3836 52.3209 20.5616 52.4989C20.7396 52.6768 20.9809 52.777 21.2327 52.7773M21.233 52.5273H21.2327V52.7773M21.233 52.5273L21.2327 52.7773M26.9488 19.4157C26.9504 18.1212 27.4653 16.8802 28.3806 15.9649C29.296 15.0495 30.5371 14.5346 31.8316 14.5331C31.8316 14.5331 31.8316 14.5331 31.8317 14.5331H33.1143L26.9488 19.4157ZM26.9488 19.4157C26.9488 19.4158 26.9488 19.4159 26.9488 19.416M26.9488 19.4157L26.9488 19.416M26.9488 19.416V21.9817M25.1657 19.4154V19.4157L25.1657 21.982L25.1657 21.9823C25.1676 23.7494 25.8705 25.4437 27.1201 26.6933C28.3697 27.9429 30.0639 28.6457 31.8311 28.6477H31.8314H33.1145H33.1148C34.882 28.6457 36.5762 27.9429 37.8258 26.6933C39.0754 25.4437 39.7783 23.7494 39.7802 21.9823V21.982V19.4157V19.4154C39.7783 17.6482 39.0754 15.954 37.8258 14.7044C36.5762 13.4548 34.882 12.7519 33.1148 12.75H33.1145L31.8314 12.75L31.8311 12.75C30.0639 12.7519 28.3697 13.4548 27.1201 14.7044C25.8705 15.954 25.1676 17.6482 25.1657 19.4154ZM52.3629 33.2802H52.3616H46.0743C45.5819 33.2802 45.1827 33.6794 45.1827 34.1718C45.1827 34.6642 45.5819 35.0634 46.0743 35.0634H48.8736C49.3653 35.0634 49.6116 35.6579 49.2639 36.0056L46.0444 39.2251C45.8444 39.4251 45.5108 39.4464 45.2567 39.2674C43.7251 38.1885 41.866 37.6551 39.981 37.768C37.8409 37.8962 35.8334 38.8476 34.3791 40.4228C32.9248 41.998 32.1364 44.075 32.1792 46.2185C32.2219 48.362 33.0925 50.4058 34.6085 51.9218C36.1245 53.4378 38.1683 54.3083 40.3118 54.3511C42.4553 54.3938 44.5322 53.6055 46.1074 52.1511C47.6827 50.6968 48.634 48.6893 48.7622 46.5492C48.8751 44.6642 48.3417 42.8051 47.2628 41.2735C47.0839 41.0194 47.1052 40.6858 47.3052 40.4858L50.5246 37.2664C50.8723 36.9187 51.4669 37.1649 51.4669 37.6567V40.4592C51.4669 40.9516 51.866 41.3508 52.3584 41.3508C52.8508 41.3508 53.25 40.9516 53.25 40.4592V34.1718C53.25 33.9361 53.1567 33.71 52.9904 33.5429C52.8242 33.3759 52.5986 33.2814 52.3629 33.2802Z" fill="white" stroke="white" stroke-width="0.5"/>
</svg>
