<svg width="72" height="72" viewBox="0 0 72 72" fill="none" xmlns="http://www.w3.org/2000/svg">
<circle cx="36" cy="36" r="36" fill="#520CF3"/>
<path d="M43.4842 22.433C46.8137 22.433 49.491 25.1275 49.491 28.4398C49.491 31.6835 46.9167 34.3266 43.7073 34.4467C43.559 34.4295 43.4093 34.4295 43.2611 34.4467M46.7965 49.8929C48.0322 49.6354 49.1992 49.1377 50.1603 48.3997C52.8377 46.3917 52.8377 43.0794 50.1603 41.0714C49.2164 40.3506 48.0665 39.87 46.848 39.5954M31.0414 34.2236C30.8698 34.2064 30.6638 34.2064 30.475 34.2236C28.5051 34.1567 26.6386 33.3257 25.2708 31.9066C23.9029 30.4875 23.1411 28.5916 23.1467 26.6206C23.1467 22.4158 26.5449 19.0005 30.7668 19.0005C32.7855 18.9641 34.736 19.7311 36.1892 21.1328C37.6424 22.5345 38.4792 24.456 38.5156 26.4747C38.5521 28.4934 37.7851 30.4439 36.3834 31.8971C34.9817 33.3503 33.0601 34.1872 31.0414 34.2236ZM22.4602 40.5565C18.3069 43.3368 18.3069 47.8677 22.4602 50.6309C27.1799 53.7887 34.9201 53.7887 39.6398 50.6309C43.7931 47.8505 43.7931 43.3197 39.6398 40.5565C34.9373 37.4158 27.197 37.4158 22.4602 40.5565Z" stroke="white" stroke-width="1.5" stroke-linecap="round" stroke-linejoin="round"/>
</svg>
