<svg width="34" height="34" viewBox="0 0 34 34" fill="none" xmlns="http://www.w3.org/2000/svg">
<path d="M24.123 0H9.877C3.689 0 0 3.689 0 9.877V24.106C0 30.311 3.689 34 9.877 34H24.106C30.294 34 33.983 30.311 33.983 24.123V9.877C34 3.689 30.311 0 24.123 0ZM11.288 18.377L18.734 10.931H14.603C13.906 10.931 13.328 10.353 13.328 9.656C13.328 8.959 13.906 8.381 14.603 8.381H21.811C21.981 8.381 22.134 8.415 22.304 8.483C22.61 8.619 22.865 8.857 23.001 9.18C23.069 9.333 23.103 9.503 23.103 9.673V16.881C23.103 17.578 22.525 18.156 21.828 18.156C21.131 18.156 20.553 17.578 20.553 16.881V12.75L13.09 20.179C12.835 20.434 12.512 20.553 12.189 20.553C11.866 20.553 11.543 20.434 11.288 20.179C11.0509 19.9391 10.9179 19.6153 10.9179 19.278C10.9179 18.9407 11.0509 18.6169 11.288 18.377ZM27.608 25.874C24.191 27.013 20.604 27.591 17 27.591C13.396 27.591 9.809 27.013 6.392 25.874C6.07285 25.7645 5.80986 25.5333 5.66023 25.2309C5.51061 24.9284 5.48644 24.5792 5.593 24.259C5.814 23.596 6.528 23.222 7.208 23.46C13.532 25.568 20.485 25.568 26.809 23.46C27.472 23.239 28.203 23.596 28.424 24.259C28.628 24.939 28.271 25.653 27.608 25.874Z" fill="#1DC255"/>
</svg>
