<svg width="72" height="72" viewBox="0 0 72 72" fill="none" xmlns="http://www.w3.org/2000/svg">
<circle cx="36" cy="36" r="36" fill="#1F3B48"/>
<path d="M41.1 41.95H51.3M41.1 48.75H51.3M53 29.659V22.791C53 20.088 51.912 19 49.209 19H42.341C39.638 19 38.55 20.088 38.55 22.791V29.659C38.55 32.362 39.638 33.45 42.341 33.45H49.209C51.912 33.45 53 32.362 53 29.659ZM33.45 30.084V22.366C33.45 19.969 32.362 19 29.659 19H22.791C20.088 19 19 19.969 19 22.366V30.067C19 32.481 20.088 33.433 22.791 33.433H29.659C32.362 33.45 33.45 32.481 33.45 30.084ZM33.45 49.209V42.341C33.45 39.638 32.362 38.55 29.659 38.55H22.791C20.088 38.55 19 39.638 19 42.341V49.209C19 51.912 20.088 53 22.791 53H29.659C32.362 53 33.45 51.912 33.45 49.209Z" stroke="white" stroke-width="2" stroke-linecap="round" stroke-linejoin="round"/>
</svg>
